<?xml version="1.0" encoding="UTF-8" standalone="no"?>
<svg width="30px" height="30px" viewBox="0 0 30 30" version="1.1" xmlns="http://www.w3.org/2000/svg" xmlns:xlink="http://www.w3.org/1999/xlink">
    <!-- Generator: Sketch 48.2 (47327) - http://www.bohemiancoding.com/sketch -->
    <title>AMBIENT ICON</title>
    <desc>Created with Sketch.</desc>
    <defs></defs>
    <g id="UNLOAD-TOTES" stroke="none" stroke-width="1" fill="none" fill-rule="evenodd" transform="translate(-1377.000000, -428.000000)">
        <g id="AMBIENT-ICON" transform="translate(1377.000000, 428.000000)">
            <circle id="Oval-3" fill="#D8D8D8" cx="15" cy="15" r="15"></circle>
            <g id="noun_619610_cc" transform="translate(3.000000, 3.000000)" fill="#000000" fill-rule="nonzero">
                <g id="Group" transform="translate(0.000000, 0.167730)">
                    <path d="M12.0885563,0.0788078541 C11.8778781,0.08097787 11.6768189,0.167319547 11.5301725,0.318596907 C11.383526,0.469874268 11.3034751,0.673519883 11.3078541,0.884163745 L11.3078541,2.98795056 C11.3038304,3.27246347 11.4533115,3.53710311 11.6990582,3.68053379 C11.9448048,3.82396447 12.2487435,3.82396447 12.4944902,3.68053379 C12.7402369,3.53710311 12.889718,3.27246347 12.8856942,2.98795056 L12.8856942,0.884163745 C12.8901331,0.670669447 12.8078455,0.464493128 12.657626,0.312724895 C12.5074064,0.160956662 12.3020849,0.0765589098 12.0885563,0.0788078541 Z M4.28153489,3.31666725 C3.95971891,3.31589372 3.66968502,3.51064937 3.54860899,3.80882167 C3.42753297,4.10699397 3.49968291,4.4488182 3.73093443,4.6726236 L5.21837745,6.16006662 C5.52700432,6.46869348 6.02738733,6.46869347 6.33601419,6.16006661 C6.64464105,5.85143975 6.64464106,5.35105674 6.3360142,5.04242987 L4.84857118,3.55498685 C4.69958139,3.40211 4.49500385,3.31612814 4.28153489,3.31666725 Z M19.8873597,3.31666725 C19.6824726,3.32263849 19.4879513,3.40811001 19.3449772,3.55498685 L17.8575342,5.04242987 C17.5489073,5.35105674 17.5489073,5.85143975 17.8575342,6.16006662 C18.1661611,6.46869349 18.6665441,6.46869349 18.9751709,6.16006662 L20.462614,4.6726236 C20.6974392,4.44574124 20.7682488,4.09765264 20.6407245,3.79705975 C20.5132003,3.49646687 20.213693,3.30548233 19.8873597,3.31666725 Z M11.9915849,5.37224229 C8.43664522,5.37224229 5.53997195,8.26891049 5.53997195,11.8238552 C5.53997195,15.3787861 8.43664522,18.2754681 11.9915849,18.2754681 C15.5465247,18.2754681 18.4431978,15.3787861 18.4431978,11.8238552 C18.4431978,8.26891049 15.5465247,5.37224229 11.9915849,5.37224229 Z M0.969714236,11.1401245 C0.687825056,11.1547571 0.435161191,11.3186812 0.30691795,11.5701355 C0.178674708,11.8215899 0.194339996,12.1223634 0.348011657,12.3591347 C0.501683318,12.595906 0.770009329,12.7326951 1.05189341,12.7179646 L3.15568022,12.7179646 C3.44019313,12.7219883 3.70483277,12.5725072 3.84826345,12.3267605 C3.99169414,12.0810139 3.99169414,11.7770752 3.84826345,11.5313285 C3.70483277,11.2855818 3.44019313,11.1361008 3.15568022,11.1401245 L1.05189341,11.1401245 C1.02451895,11.1386969 0.997088695,11.1386969 0.969714236,11.1401245 Z M20.955689,11.1401245 C20.6737998,11.1547571 20.4211359,11.3186812 20.2928927,11.5701355 C20.1646495,11.8215899 20.1803148,12.1223634 20.3339864,12.3591347 C20.4876581,12.595906 20.7559841,12.7326951 21.0378682,12.7179646 L23.141655,12.7179646 C23.4261679,12.7219883 23.6908075,12.5725072 23.8342382,12.3267605 C23.9776689,12.0810139 23.9776689,11.7770752 23.8342382,11.5313285 C23.6908075,11.2855818 23.4261679,11.1361008 23.141655,11.1401245 L21.0378682,11.1401245 C21.0104937,11.1386969 20.9830634,11.1386969 20.955689,11.1401245 Z M5.76075999,17.4514849 C5.55587288,17.4574562 5.3613515,17.5429277 5.21837745,17.6898045 L3.73093443,19.1772475 C3.42230759,19.4858744 3.4223076,19.9862574 3.73093446,20.2948843 C4.03956131,20.6035111 4.53994431,20.6035111 4.84857118,20.2948843 L6.3360142,18.8074413 C6.57083949,18.5805589 6.64164901,18.2324703 6.51412475,17.9318774 C6.3866005,17.6312845 6.08709328,17.4403 5.76075999,17.4514849 Z M18.3341734,17.4514849 C18.0256355,17.4785445 17.7614662,17.6836206 17.658755,17.9758163 C17.5560438,18.2680119 17.6337902,18.5932766 17.8575342,18.8074413 L19.3449772,20.2948843 C19.6536041,20.6035111 20.1539871,20.6035111 20.4626139,20.2948843 C20.7712408,19.9862574 20.7712408,19.4858744 20.462614,19.1772475 L18.9751709,17.6898045 C18.8088234,17.5170832 18.5729534,17.429388 18.3341734,17.4514849 Z M12.0885563,20.0647826 C11.8778781,20.0669526 11.6768189,20.1532943 11.5301725,20.3045717 C11.383526,20.455849 11.3034751,20.6594946 11.3078541,20.8701385 L11.3078541,22.9739253 C11.3038304,23.2584382 11.4533115,23.5230779 11.6990582,23.6665085 C11.9448048,23.8099392 12.2487435,23.8099392 12.4944902,23.6665085 C12.7402369,23.5230779 12.889718,23.2584382 12.8856942,22.9739253 L12.8856942,20.8701385 C12.8901331,20.6566442 12.8078455,20.4504679 12.657626,20.2986996 C12.5074064,20.1469314 12.3020849,20.0625337 12.0885563,20.0647826 Z" id="Shape"></path>
                </g>
            </g>
        </g>
    </g>
</svg>