<?xml version="1.0" encoding="UTF-8" standalone="no"?>
<svg width="160px" height="160px" viewBox="0 0 160 160" version="1.1" xmlns="http://www.w3.org/2000/svg" xmlns:xlink="http://www.w3.org/1999/xlink">
    <!-- Generator: Sketch 42 (36781) - http://www.bohemiancoding.com/sketch -->
    <title>Check 25 Icon - blue</title>
    <desc>Created with Sketch.</desc>
    <defs></defs>
    <g id="Icons" stroke="none" stroke-width="1" fill="none" fill-rule="evenodd">
        <g id="Check-25-Icon---blue">
            <g id="Group">
                <g id="Group-2" fill="#94CFEE">
                    <ellipse id="Oval-4" cx="80" cy="80" rx="80" ry="80"></ellipse>
                </g>
                <g id="Group-9" transform="translate(30.000000, 30.000000)">
                    <circle id="Oval-2" stroke="#FFFFFF" stroke-width="7" cx="50" cy="50" r="50"></circle>
                    <path d="M23.0217631,69.9841322 L48.3479339,69.9841322 L48.3479339,64.2121212 L39.1598347,64.2121212 C37.3339945,64.2121212 34.8602755,64.4477135 32.9166391,64.6244077 C40.3377961,56.7909642 46.5220937,49.9587879 46.5220937,43.3033058 C46.5220937,36.3533333 41.869146,31.8181818 34.6835813,31.8181818 C29.559449,31.8181818 26.1433609,33.9385124 22.7272727,37.5901928 L26.4967493,41.3596694 C28.4992837,39.1215427 30.9141047,37.1779063 33.8001102,37.1779063 C37.8051791,37.1779063 39.9844077,39.7105234 39.9844077,43.6566942 C39.9844077,49.3698072 33.4467218,55.9663912 23.0217631,66.0379614 L23.0217631,69.9841322 Z M52.4119008,65.5078788 C55.1801102,68.2760882 59.126281,70.6909091 65.1927824,70.6909091 C72.0838567,70.6909091 78.3859504,65.9790634 78.3859504,57.7922314 C78.3859504,49.7231956 73.0262259,46.0715152 66.6063361,46.0715152 C64.6626997,46.0715152 63.249146,46.5426997 61.6588981,47.3083747 L62.424573,38.2380716 L76.5601102,38.2380716 L76.5601102,32.5249587 L56.5347658,32.5249587 L55.4157025,51.0189532 L58.6550964,53.0803857 C60.8932231,51.6079339 62.2478788,50.9600551 64.6626997,50.9600551 C68.7855647,50.9600551 71.5537741,53.4926722 71.5537741,57.9689256 C71.5537741,62.5040771 68.4910744,65.1544904 64.3093113,65.1544904 C60.5398347,65.1544904 57.7716253,63.2697521 55.5334986,61.1494215 L52.4119008,65.5078788 Z" id="25" fill="#FFFFFF"></path>
                </g>
            </g>
        </g>
    </g>
</svg>