<?xml version="1.0" encoding="UTF-8" standalone="no"?>
<svg width="30px" height="30px" viewBox="0 0 30 30" version="1.1" xmlns="http://www.w3.org/2000/svg" xmlns:xlink="http://www.w3.org/1999/xlink">
    <!-- Generator: Sketch 48.2 (47327) - http://www.bohemiancoding.com/sketch -->
    <title>CHILL ICON</title>
    <desc>Created with Sketch.</desc>
    <defs></defs>
    <g id="UNLOAD-TOTES" stroke="none" stroke-width="1" fill="none" fill-rule="evenodd" transform="translate(-1377.000000, -379.000000)">
        <g id="CHILL-ICON" transform="translate(1377.000000, 379.000000)">
            <circle id="Oval-4" fill="#D8D8D8" cx="15" cy="15" r="15"></circle>
            <g id="noun_117542_cc" transform="translate(9.000000, 4.000000)" fill="#000000" fill-rule="nonzero">
                <g id="Group">
                    <path d="M9.11141892,12.6658514 L9.11141892,7.99716216 L9.11141892,3.15317568 L9.11141892,1.94318919 C9.11141892,1.03375676 8.3605,0.294027027 7.4377027,0.294027027 L3.93051351,0.294027027 C3.00771622,0.294027027 2.2567973,1.03375676 2.2567973,1.94318919 L2.2567973,3.15317568 L2.2567973,7.99716216 L2.2567973,12.6658514 C0.884567568,13.7254054 0.0773918919,15.3525 0.0773918919,17.0998784 C0.0773918919,20.1912027 2.59247297,22.7062838 5.6837973,22.7062838 C8.77543243,22.7062838 11.2902027,20.1912027 11.2902027,17.0998784 C11.2908243,15.3521892 10.4836486,13.7250946 9.11141892,12.6658514 Z M5.68410811,21.1208378 C3.46678378,21.1208378 1.66283784,19.3168919 1.66283784,17.0995676 C1.66283784,15.7413243 2.34382432,14.4840946 3.48418919,13.7362838 L3.84193243,13.5016216 L3.84193243,7.99716216 L3.84193243,3.15317568 L3.84193243,1.94318919 C3.84193243,1.91272973 3.8782973,1.87916216 3.93051351,1.87916216 L7.4377027,1.87916216 C7.48991892,1.87916216 7.52628378,1.91272973 7.52628378,1.94318919 L7.52628378,3.15317568 L7.52628378,7.99716216 L7.52628378,13.5016216 L7.88402703,13.7362838 C9.0247027,14.4840946 9.70537838,15.7413243 9.70537838,17.0995676 C9.70568919,19.3172027 7.90174324,21.1208378 5.68410811,21.1208378 Z" id="Shape"></path>
                    <path d="M6.47698649,14.3641216 L6.47698649,12.6516577 C6.47698649,12.3632252 6.24108108,12.1273198 5.95264865,12.1273198 L5.41587838,12.1273198 C5.12744595,12.1273198 4.89154054,12.3632252 4.89154054,12.6516577 L4.89154054,14.3641216 C3.70486486,14.7085 2.83428378,15.8034865 2.83428378,17.0995676 C2.83428378,18.671027 4.11264865,19.9493919 5.68410811,19.9493919 C7.25556757,19.9493919 8.53393243,18.671027 8.53393243,17.0995676 C8.53393243,15.8034865 7.66335135,14.7088108 6.47698649,14.3641216 Z" id="Shape"></path>
                    <path d="M14.3171892,7.33244144 L11.1453649,7.33244144 C10.8569324,7.33244144 10.621027,7.56834685 10.621027,7.85677928 L10.621027,8.39354955 C10.621027,8.68198198 10.8569324,8.91788739 11.1453649,8.91788739 L14.3171892,8.91788739 C14.6056216,8.91788739 14.841527,8.68198198 14.841527,8.39354955 L14.841527,7.85677928 C14.8412162,7.56834685 14.6053108,7.33244144 14.3171892,7.33244144 Z" id="Shape"></path>
                    <path d="M14.3171892,10.5723333 L11.1453649,10.5723333 C10.8569324,10.5723333 10.621027,10.8082387 10.621027,11.0966712 L10.621027,11.6334414 C10.621027,11.9218739 10.8569324,12.1577793 11.1453649,12.1577793 L14.3171892,12.1577793 C14.6056216,12.1577793 14.841527,11.9218739 14.841527,11.6334414 L14.841527,11.0966712 C14.8412162,10.8082387 14.6053108,10.5723333 14.3171892,10.5723333 Z" id="Shape"></path>
                </g>
            </g>
        </g>
    </g>
</svg>