<?xml version="1.0" encoding="UTF-8" standalone="no"?>
<svg width="30px" height="30px" viewBox="0 0 30 30" version="1.1" xmlns="http://www.w3.org/2000/svg" xmlns:xlink="http://www.w3.org/1999/xlink">
    <!-- Generator: Sketch 48.2 (47327) - http://www.bohemiancoding.com/sketch -->
    <title>FROZEN ICON</title>
    <desc>Created with Sketch.</desc>
    <defs></defs>
    <g id="UNLOAD-TOTES" stroke="none" stroke-width="1" fill="none" fill-rule="evenodd" transform="translate(-1377.000000, -331.000000)">
        <g id="FROZEN-ICON" transform="translate(1377.000000, 331.000000)">
            <circle id="Oval-2" fill="#D8D8D8" cx="15" cy="15" r="15"></circle>
            <g id="noun_619608_cc-(1)" transform="translate(5.000000, 4.000000)" fill="#000000" fill-rule="nonzero">
                <g id="Group" transform="translate(0.000000, 0.154311)">
                    <path d="M10.0086766,0.0725032258 C9.81762153,0.0744996404 9.63528955,0.153933984 9.5023022,0.293109155 C9.36931484,0.432284326 9.29672009,0.619638293 9.30069124,0.813430645 L9.30069124,2.89256371 L7.60897897,1.46363226 C7.46293679,1.33564902 7.27212677,1.2729415 7.07985311,1.28974113 C6.79161402,1.3191151 6.54927598,1.52191177 6.46603426,1.80340553 C6.38279253,2.08489928 6.47507498,2.38953697 6.69977679,2.57502339 L9.30069124,4.77512419 L9.30069124,9.72724113 L5.09749424,7.30788629 L4.50874856,3.86030565 C4.45129778,3.48323275 4.11589682,3.21564819 3.74114343,3.24790645 C3.54048238,3.26584325 3.35656964,3.36875928 3.23457471,3.53137807 C3.11257978,3.69399686 3.0638053,3.90125203 3.10023041,4.10224113 L3.48775922,6.37794677 L1.54266273,5.25899516 C1.41884854,5.18525547 1.27603094,5.15100935 1.1327765,5.16070887 C0.816420598,5.18431512 0.553149327,5.41641482 0.485978942,5.73092499 C0.418808556,6.04543515 0.563775576,6.36726839 0.842129896,6.52159597 L2.68289171,7.58762419 L0.693080357,8.32855161 C0.453425534,8.41901749 0.279555336,8.63232736 0.236973756,8.8881187 C0.194392176,9.14391004 0.289569403,9.40331585 0.486648295,9.56860739 C0.683727187,9.73389892 0.952761986,9.77996045 1.19239631,9.68943871 L4.32243664,8.52512419 L8.5703485,10.974721 L4.32243664,13.4167573 L1.19239631,12.2524427 C1.08120994,12.2078729 0.960787487,12.192277 0.842129896,12.2070798 C0.511541542,12.2476452 0.252239697,12.5142149 0.216638701,12.8501025 C0.181037705,13.1859902 0.378549999,13.5023915 0.693080357,13.6133298 L2.69034418,14.3618177 L0.842129896,15.4202855 C0.602205437,15.5377494 0.446473778,15.7807127 0.437966024,16.0508379 C0.429458269,16.3209631 0.569583334,16.5735166 0.801626752,16.7062795 C1.03367017,16.8390423 1.31920475,16.8300285 1.54266273,16.6828863 L3.48775922,15.5639347 L3.10023041,17.8396403 C3.04062898,18.1022552 3.12934294,18.3767532 3.33064459,18.5525861 C3.53194623,18.7284189 3.81269935,18.7766427 4.05983646,18.6778364 C4.30697358,18.5790301 4.4798135,18.3494581 4.50874856,18.0815758 L5.09749424,14.6339952 L9.30069124,12.2146403 L9.30069124,17.1667573 L6.69977679,19.3668581 C6.47311992,19.5212342 6.35280716,19.7930033 6.38963252,20.067429 C6.42645787,20.3418548 6.61400286,20.5711061 6.87308917,20.6583971 C7.13217547,20.745688 7.41764563,20.6758041 7.60897897,20.4782492 L9.30069124,19.0493177 L9.30069124,21.1360113 C9.2970423,21.3977632 9.4326003,21.6412316 9.65545742,21.7731879 C9.87831454,21.9051441 10.1539435,21.9051441 10.3768006,21.7731879 C10.5996578,21.6412316 10.7352158,21.3977632 10.7315668,21.1360113 L10.7315668,19.0493177 L12.4232791,20.4782492 C12.6146124,20.6758041 12.9000826,20.745688 13.1591689,20.6583971 C13.4182552,20.5711061 13.6058002,20.3418548 13.6426255,20.067429 C13.6794509,19.7930033 13.5591381,19.5212342 13.3324813,19.3668581 L10.7315668,17.1667573 L10.7315668,12.2146403 L14.9347638,14.6339952 L15.5235095,18.0815758 C15.5524446,18.3494581 15.7252845,18.5790301 15.9724216,18.6778364 C16.2195587,18.7766427 16.5003118,18.7284189 16.7016135,18.5525861 C16.9029151,18.3767532 16.9916291,18.1022552 16.9320276,17.8396403 L16.5444988,15.5639347 L18.4895953,16.6828863 C18.7130533,16.8300285 18.9985879,16.8390423 19.2306313,16.7062795 C19.4626747,16.5735166 19.6027998,16.3209631 19.594292,16.0508379 C19.5857843,15.7807127 19.4300526,15.5377494 19.1901282,15.4202855 L17.3419139,14.3618177 L19.3391777,13.6133298 C19.6809777,13.4906223 19.8782788,13.1279426 19.7984187,12.769151 C19.7185587,12.4103594 19.3867835,12.16888 19.0261737,12.2070798 C18.9623459,12.2136585 18.8996802,12.2289162 18.8398618,12.2524427 L15.7098214,13.4167573 L11.4619096,10.974721 L15.7098214,8.52512419 L18.8398618,9.68943871 C19.0794961,9.77996045 19.3485309,9.73389892 19.5456098,9.56860739 C19.7426887,9.40331585 19.8378659,9.14391004 19.7952843,8.8881187 C19.7527027,8.63232736 19.5788325,8.41901749 19.3391777,8.32855161 L17.3493664,7.58762419 L19.1901282,6.52159597 C19.4836345,6.35817135 19.6261887,6.01011517 19.5332663,5.68379933 C19.440344,5.35748349 19.136794,5.14016958 18.8025994,5.16070887 C18.6921754,5.16846836 18.5850317,5.20211252 18.4895953,5.25899516 L16.5444988,6.37794677 L16.9320276,4.10224113 C16.9708432,3.88464608 16.9097724,3.66096785 16.7661351,3.49464219 C16.6224979,3.32831653 16.4119607,3.23748455 16.1942324,3.24790645 C15.8559632,3.26525843 15.576028,3.52085142 15.5235095,3.86030565 L14.9347638,7.30788629 L10.7315668,9.72724113 L10.7315668,4.77512419 L13.3324813,2.57502339 C13.5591381,2.42064727 13.6794509,2.14887818 13.6426255,1.87445243 C13.6058002,1.60002668 13.4182552,1.37077532 13.1591689,1.28348439 C12.9000826,1.19619347 12.6146124,1.26607735 12.4232791,1.46363226 L10.7315668,2.89256371 L10.7315668,0.813430645 C10.7355922,0.617015892 10.6609692,0.427333678 10.5247415,0.287706904 C10.3885138,0.148080129 10.2023165,0.070434197 10.0086766,0.0725032258 Z" id="Shape"></path>
                </g>
            </g>
        </g>
    </g>
</svg>