<?xml version="1.0" encoding="UTF-8" standalone="no"?>
<svg width="160px" height="160px" viewBox="0 0 160 160" version="1.1" xmlns="http://www.w3.org/2000/svg" xmlns:xlink="http://www.w3.org/1999/xlink">
    <!-- Generator: Sketch 42 (36781) - http://www.bohemiancoding.com/sketch -->
    <title>Missin Items Icon - blue</title>
    <desc>Created with Sketch.</desc>
    <defs></defs>
    <g id="Icons" stroke="none" stroke-width="1" fill="none" fill-rule="evenodd">
        <g id="Missin-Items-Icon---blue">
            <g id="Group-3">
                <g id="Group-2" fill="#94CFEE">
                    <ellipse id="Oval-4" cx="80" cy="80" rx="80" ry="80"></ellipse>
                </g>
                <g id="ic_remove_shopping_cart_black_24px" transform="translate(32.000000, 32.000000)">
                    <g id="Group">
                        <path d="M90.92,90.92 L11.08,11.08 L8,8 L5.08,5.08 L0,10.16 L17.56,27.72 L26.4,46.36 L21,56.16 C20.36,57.28 20,58.6 20,60 C20,64.4 23.6,68 28,68 L57.84,68 L63.36,73.52 C61.36,74.96 60.04,77.32 60.04,80 C60.04,84.4 63.6,88 68,88 C70.68,88 73.04,86.68 74.48,84.64 L85.84,96 L90.92,90.92 Z M29.68,60 C29.12,60 28.68,59.56 28.68,59 L28.8,58.52 L32.4,52 L41.84,52 L49.84,60 L29.68,60 Z M62.2,52 C65.2,52 67.84,50.36 69.2,47.88 L83.52,21.92 C83.84,21.36 84,20.68 84,20 C84,17.8 82.2,16 80,16 L26.16,16 L62.2,52 Z M28,72 C23.6,72 20.04,75.6 20.04,80 C20.04,84.4 23.6,88 28,88 C32.4,88 36,84.4 36,80 C36,75.6 32.4,72 28,72 Z" id="Shape" fill="#FFFFFF"></path>
                        <polygon id="Shape" points="0 0 96 0 96 96 0 96"></polygon>
                    </g>
                </g>
            </g>
        </g>
    </g>
</svg>