<?xml version="1.0" encoding="UTF-8" standalone="no"?>
<svg width="160px" height="160px" viewBox="0 0 160 160" version="1.1" xmlns="http://www.w3.org/2000/svg" xmlns:xlink="http://www.w3.org/1999/xlink">
    <!-- Generator: Sketch 42 (36781) - http://www.bohemiancoding.com/sketch -->
    <title>Products Icon - blue</title>
    <desc>Created with Sketch.</desc>
    <defs></defs>
    <g id="Icons" stroke="none" stroke-width="1" fill="none" fill-rule="evenodd">
        <g id="Products-Icon---blue">
            <g id="Group-4">
                <g id="Group-2" fill="#94CFEE">
                    <ellipse id="Oval-4" cx="80" cy="80" rx="80" ry="80"></ellipse>
                </g>
                <g id="ic_shopping_cart_black_24px-(1)" transform="translate(30.000000, 30.000000)">
                    <g id="Group">
                        <path d="M29.1666667,75 C24.5833333,75 20.875,78.75 20.875,83.3333333 C20.875,87.9166667 24.5833333,91.6666667 29.1666667,91.6666667 C33.75,91.6666667 37.5,87.9166667 37.5,83.3333333 C37.5,78.75 33.75,75 29.1666667,75 Z M4.16666667,8.33333333 L4.16666667,16.6666667 L12.5,16.6666667 L27.5,48.2916667 L21.875,58.5 C21.2083333,59.6666667 20.8333333,61.0416667 20.8333333,62.5 C20.8333333,67.0833333 24.5833333,70.8333333 29.1666667,70.8333333 L79.1666667,70.8333333 L79.1666667,62.5 L30.9166667,62.5 C30.3333333,62.5 29.875,62.0416667 29.875,61.4583333 L30,60.9583333 L33.75,54.1666667 L64.7916667,54.1666667 C67.9166667,54.1666667 70.6666667,52.4583333 72.0833333,49.875 L87,22.8333333 C87.3333333,22.25 87.5,21.5416667 87.5,20.8333333 C87.5,18.5416667 85.625,16.6666667 83.3333333,16.6666667 L21.7083333,16.6666667 L17.7916667,8.33333333 L4.16666667,8.33333333 Z M70.8333333,75 C66.25,75 62.5416667,78.75 62.5416667,83.3333333 C62.5416667,87.9166667 66.25,91.6666667 70.8333333,91.6666667 C75.4166667,91.6666667 79.1666667,87.9166667 79.1666667,83.3333333 C79.1666667,78.75 75.4166667,75 70.8333333,75 Z" id="Shape" fill="#FFFFFF"></path>
                        <polygon id="Shape" points="0 0 100 0 100 100 0 100"></polygon>
                    </g>
                </g>
            </g>
        </g>
    </g>
</svg>