<?xml version="1.0" encoding="UTF-8" standalone="no"?>
<svg width="24px" height="24px" viewBox="0 0 24 24" version="1.1" xmlns="http://www.w3.org/2000/svg" xmlns:xlink="http://www.w3.org/1999/xlink">
    <!-- Generator: Sketch 49.2 (51160) - http://www.bohemiancoding.com/sketch -->
    <title>Material/Icons black/container</title>
    <desc>Created with Sketch.</desc>
    <defs></defs>
    <g id="Material/Icons-black/container" stroke="none" stroke-width="1" fill="none" fill-rule="evenodd">
        <g id="box-black-container-tool" transform="translate(2.000000, 5.000000)" fill-rule="nonzero">
            <rect id="Rectangle-path" fill="#000000" x="7.04559501" y="3.53718661" width="5.28420417" height="1"></rect>
            <path d="M1.76139084,2.65649119 L0.880695419,2.65649119 L2.4495843,13.1016186 C2.4495843,14.1056266 3.4280433,14.1056266 3.4280433,14.1056266 L15.9473509,14.1056266 C15.9473509,14.1056266 16.9258099,14.1056266 16.9258099,13.1016186 L18.4946988,2.65649119 L13.2104946,2.65649119 L13.2104946,5.29860911 L14.3693521,2.65649119 L6.16489959,2.65649119 L1.76139084,2.65649119 Z" id="Shape" fill="#424242"></path>
            <path d="M19.3754259,0.895068692 C19.3754259,0.0143732734 18.4947304,0.0143732734 18.4947304,0.0143732734 L0.876294791,0.0143732734 C0.876294791,0.0143732734 0,0.0143732734 0,0.895068692 C0,1.77576411 0.876294791,1.77576411 0.876294791,1.77576411 L18.4946988,1.77576411 C18.4947304,1.77576411 19.3754259,1.77576411 19.3754259,0.895068692 Z" id="Shape" fill="#424242"></path>
        </g>
    </g>
</svg>