<?xml version="1.0" encoding="UTF-8" standalone="no"?>
<svg width="24px" height="24px" viewBox="0 0 24 24" version="1.1" xmlns="http://www.w3.org/2000/svg" xmlns:xlink="http://www.w3.org/1999/xlink">
    <!-- Generator: Sketch 49.2 (51160) - http://www.bohemiancoding.com/sketch -->
    <title>Material/Icons black/link</title>
    <desc>Created with Sketch.</desc>
    <defs></defs>
    <g id="Material/Icons-black/link" stroke="none" stroke-width="1" fill="none" fill-rule="evenodd">
        <g id="link" transform="translate(12.227922, 12.227922) rotate(45.000000) translate(-12.227922, -12.227922) translate(3.727922, 3.727922)" fill="#424242" fill-rule="nonzero">
            <path d="M10.354193,6.61445809 C10.1531754,6.41224756 9.93028655,6.23300195 9.68966862,6.08000195 C9.05235088,5.67190253 8.3114425,5.45504483 7.55466082,5.45504483 C6.5042729,5.45308967 5.49656725,5.8704347 4.75512865,6.61445809 L1.158154,10.2142495 C0.417974659,10.9558538 0.00195516569,11.9606433 0.00129239766,13.0084133 C-9.94152047e-05,15.194885 1.77121442,16.9684854 3.95768616,16.9698772 C5.00645029,16.9735224 6.01322807,16.5581657 6.75440156,15.8161306 L9.72360234,12.8469298 C9.77755166,12.7934444 9.80767446,12.7204737 9.80724366,12.6445205 C9.80634893,12.4883392 9.67899805,12.3624795 9.52281676,12.3633743 L9.4097154,12.3633743 C8.78936452,12.3655614 8.17454776,12.2464288 7.59992788,12.0127368 C7.49405068,11.9691598 7.37236647,11.9937485 7.2917076,12.0749376 L5.15669981,14.2127622 C4.49373294,14.875729 3.41885575,14.875729 2.75588889,14.2127622 C2.09292203,13.5497953 2.09292203,12.4749181 2.75588889,11.8119513 L6.36701365,8.20367641 C7.02945029,7.54206823 8.10257115,7.54206823 8.7650078,8.20367641 C9.21144834,8.62383821 9.90781871,8.62383821 10.3542261,8.20367641 C10.5462963,8.01144055 10.6627446,7.75647368 10.6822632,7.48540156 C10.7029084,7.16147368 10.5834444,6.84423977 10.354193,6.61445809 Z" id="Shape"></path>
            <path d="M15.809039,1.15961209 C14.2629006,-0.386526316 11.7561131,-0.386526316 10.2099747,1.15961209 L7.24359064,4.1231462 C7.16213645,4.20499805 7.13864133,4.32810721 7.18420663,4.43421637 C7.22924172,4.54062378 7.33448928,4.60892203 7.45000975,4.60670175 L7.55462768,4.60670175 C8.17424951,4.60557505 8.78807212,4.72563548 9.36159844,4.96018908 C9.46747563,5.00376608 9.58915984,4.97917739 9.66981871,4.8979883 L11.7991598,2.77146394 C12.4621267,2.10849708 13.5370039,2.10849708 14.1999708,2.77146394 C14.8629376,3.4344308 14.8629376,4.50930799 14.1999708,5.17227485 L11.5474737,7.82192203 L11.5248402,7.84737232 L10.5973294,8.76924951 C9.93489279,9.4308577 8.86177193,9.4308577 8.19933528,8.76924951 C7.75289474,8.34908772 7.05652437,8.34908772 6.61011696,8.76924951 C6.41682066,8.96294347 6.3002729,9.2201306 6.28207992,9.49315789 C6.26140156,9.81708577 6.3808655,10.1343197 6.61011696,10.3641345 C6.93742495,10.6928343 7.32037232,10.9608908 7.74123002,11.1559103 C7.80061404,11.1841774 7.85999805,11.2068109 7.91938207,11.2322612 C7.97876608,11.2577115 8.04096686,11.2774951 8.10035088,11.3001287 C8.15973489,11.3227622 8.22193567,11.3425458 8.28131969,11.3595127 L8.44817154,11.4047466 C8.5612729,11.4330136 8.67440741,11.4556472 8.79032554,11.4754308 C8.92997076,11.4961754 9.07061014,11.5093977 9.21168031,11.5150312 L9.40961598,11.5150312 L9.42658285,11.5150312 L9.59625146,11.4952476 C9.65845224,11.4924308 9.72350292,11.4782807 9.79703704,11.4782807 L9.89317154,11.4782807 L10.0882904,11.4500136 L10.1787914,11.4330468 L10.3427934,11.3991131 L10.3739103,11.3991131 C11.0685244,11.2246394 11.7027934,10.8649883 12.2091481,10.3584678 L15.8089396,6.75867641 C17.3551774,5.21253801 17.3551774,2.70575049 15.809039,1.15961209 Z" id="Shape"></path>
        </g>
    </g>
</svg>