<?xml version="1.0" encoding="UTF-8" standalone="no"?>
<svg width="24px" height="24px" viewBox="0 0 24 24" version="1.1" xmlns="http://www.w3.org/2000/svg" xmlns:xlink="http://www.w3.org/1999/xlink">
    <!-- Generator: Sketch 49.2 (51160) - http://www.bohemiancoding.com/sketch -->
    <title>Material/Icons black/log out</title>
    <desc>Created with Sketch.</desc>
    <defs></defs>
    <g id="Material/Icons-black/log-out" stroke="none" stroke-width="1" fill="none" fill-rule="evenodd">
        <path d="M20,3 L5,3 C3.9,3 3,3.9 3,5 L3,8.99 L5,8.99 L5,4.98 L20,4.98 L20,19.01 L5,19.01 L5,14.99 L3,14.99 L3,19 C3,20.1 3.9,20.98 5,20.98 L20,20.98 C21.1,20.98 22,20.1 22,19 L22,5 C22,3.89 21.1,3 20,3 Z M13,15.99 L17,11.99 L13,7.99 L13,10.99 L3,10.99 L3,12.99 L13,12.99 L13,15.99 Z" id="Shape" fill="#424242" fill-rule="nonzero"></path>
    </g>
</svg>