<?xml version="1.0" encoding="UTF-8" standalone="no"?>
<svg width="24px" height="24px" viewBox="0 0 24 24" version="1.1" xmlns="http://www.w3.org/2000/svg" xmlns:xlink="http://www.w3.org/1999/xlink">
    <!-- Generator: Sketch 49.2 (51160) - http://www.bohemiancoding.com/sketch -->
    <title>Material/Icons black/route</title>
    <desc>Created with Sketch.</desc>
    <defs></defs>
    <g id="Material/Icons-black/route" stroke="none" stroke-width="1" fill="none" fill-rule="evenodd">
        <g id="route" transform="translate(3.000000, 3.000000)" fill="#424242" fill-rule="nonzero">
            <path d="M16.3895791,0.0377809187 C14.9503131,0.0377809187 13.7793502,1.20262898 13.7793502,2.63448763 C13.7793502,2.82491873 13.8006532,3.0105159 13.8399327,3.18943463 L10.4899832,4.85592933 C10.0109529,4.30486219 9.30385859,3.95503887 8.51571044,3.95503887 C7.07638047,3.95503887 5.90541751,5.11988693 5.90541751,6.55174558 C5.90541751,7.98360424 7.07638047,9.1484523 8.51571044,9.1484523 C8.72023232,9.1484523 8.91912458,9.12415548 9.11021212,9.07969611 L10.7135051,11.4726148 C10.179266,11.9484382 9.84231987,12.6391166 9.84231987,13.4068834 C9.84231987,13.554318 9.85543434,13.6987633 9.87923232,13.8395194 L5.11330303,14.6298021 C4.79356566,13.5552721 3.79283502,12.7688057 2.6103569,12.7688057 C1.17102694,12.7688057 0,13.9335901 0,15.3653852 C0,16.797371 1.17102694,17.9622191 2.6103569,17.9622191 C3.85981481,17.9622191 4.90654209,17.0841625 5.16109091,15.9158163 L10.4270976,15.04253 C10.906064,15.6283887 11.6359966,16.0035265 12.4525488,16.0035265 C13.8920067,16.0035265 15.0630976,14.8386784 15.0630976,13.4068834 C15.0630976,11.9750883 13.8920067,10.8102403 12.4525488,10.8102403 C12.2480269,10.8102403 12.0491987,10.8346007 11.8581751,10.8789965 L10.2548822,8.48601413 C10.7891212,8.01019081 11.1260034,7.31951237 11.1260034,6.55174558 C11.1260034,6.36131449 11.1047003,6.17578092 11.0654209,5.9969258 L14.4154343,4.33036749 C14.8944007,4.88149823 15.6014949,5.23132155 16.3895791,5.23132155 C17.8289731,5.23132155 19,4.06640989 19,2.63448763 C19,1.20262898 17.8289731,0.0377809187 16.3895791,0.0377809187 Z M2.6103569,16.6859364 C1.87882492,16.6859364 1.28374747,16.0935901 1.28374747,15.3653852 C1.28374747,14.637371 1.87888889,14.0450247 2.6103569,14.0450247 C3.34182492,14.0450247 3.93690236,14.637371 3.93690236,15.3653852 C3.93690236,16.0935265 3.34182492,16.6859364 2.6103569,16.6859364 Z M13.7794141,13.4068834 C13.7794141,14.1349611 13.1842088,14.7272438 12.4526128,14.7272438 C11.7210808,14.7272438 11.1260673,14.1350247 11.1260673,13.4068834 C11.1260673,12.6788693 11.7211448,12.086523 12.4526128,12.086523 C13.1842088,12.086523 13.7794141,12.6788693 13.7794141,13.4068834 Z M7.18916498,6.55174558 C7.18916498,5.82366784 7.78424242,5.23132155 8.51571044,5.23132155 C9.24717845,5.23132155 9.84225589,5.82366784 9.84225589,6.55174558 C9.84225589,7.27982332 9.24717845,7.87216961 8.51571044,7.87216961 C7.78424242,7.87216961 7.18916498,7.27982332 7.18916498,6.55174558 Z M16.3895791,3.95503887 C15.6581111,3.95503887 15.0630976,3.36262898 15.0630976,2.63448763 C15.0630976,1.90640989 15.6581751,1.3140636 16.3895791,1.3140636 C17.1211751,1.3140636 17.7162525,1.90634629 17.7162525,2.63448763 C17.7163165,3.36256537 17.1211751,3.95503887 16.3895791,3.95503887 Z" id="Shape"></path>
        </g>
    </g>
</svg>