<?xml version="1.0" encoding="UTF-8" standalone="no"?>
<svg width="24px" height="24px" viewBox="0 0 24 24" version="1.1" xmlns="http://www.w3.org/2000/svg" xmlns:xlink="http://www.w3.org/1999/xlink">
    <!-- Generator: Sketch 49.2 (51160) - http://www.bohemiancoding.com/sketch -->
    <title>Material/Icons black/van</title>
    <desc>Created with Sketch.</desc>
    <defs>
        <polygon id="path-1" points="0 0.000374 19.285 0.000374 19.285 16.027464 0 16.027464"></polygon>
    </defs>
    <g id="Material/Icons-black/van" stroke="none" stroke-width="1" fill="none" fill-rule="evenodd">
        <g id="Page-1" transform="translate(2.000000, 4.000000)">
            <mask id="mask-2" fill="white">
                <use xlink:href="#path-1"></use>
            </mask>
            <g id="Clip-2"></g>
            <path d="M16.0041667,14.138764 C16.2858333,13.851464 16.4275,13.508064 16.4275,13.113664 C16.4275,12.719264 16.2858333,12.377564 16.0041667,12.088564 C15.7208333,11.801264 15.3858333,11.656764 14.9991667,11.656764 C14.6125,11.656764 14.2775,11.801264 13.9941667,12.088564 C13.7125,12.377564 13.5708333,12.719264 13.5708333,13.113664 C13.5708333,13.508064 13.7125,13.851464 13.9941667,14.138764 C14.2775,14.426064 14.6125,14.570564 14.9991667,14.570564 C15.3858333,14.570564 15.7208333,14.426064 16.0041667,14.138764 Z M6.00416667,14.138764 C6.28583333,13.851464 6.4275,13.508064 6.4275,13.113664 C6.4275,12.719264 6.28583333,12.377564 6.00416667,12.088564 C5.72083333,11.801264 5.38583333,11.656764 4.99916667,11.656764 C4.6125,11.656764 4.2775,11.801264 3.99416667,12.088564 C3.7125,12.377564 3.57083333,12.719264 3.57083333,13.113664 C3.57083333,13.508064 3.7125,13.851464 3.99416667,14.138764 C4.2775,14.426064 4.6125,14.570564 4.99916667,14.570564 C5.38583333,14.570564 5.72083333,14.426064 6.00416667,14.138764 Z M2.1425,7.286064 L6.4275,7.286064 L6.4275,4.370564 L4.66416667,4.370564 C4.5675,4.370564 4.48583333,4.404564 4.41916667,4.472564 L2.2425,6.694464 C2.17583333,6.762464 2.1425,6.845764 2.1425,6.944364 L2.1425,7.286064 Z M19.2858333,0.727464 L19.2858333,12.386064 C19.2858333,12.499964 19.2708333,12.600264 19.2408333,12.686964 C19.2108333,12.775364 19.1608333,12.845064 19.0908333,12.897764 C19.0191667,12.950464 18.9575,12.994664 18.9058333,13.028664 C18.8541667,13.062664 18.7658333,13.084764 18.6425,13.096664 C18.5208333,13.108564 18.4375,13.115364 18.3925,13.118764 C18.3475,13.123864 18.2525,13.123864 18.1075,13.118764 C17.9625,13.115364 17.8791667,13.113664 17.8575,13.113664 C17.8575,13.919464 17.5775,14.604564 17.0191667,15.174064 C16.4608333,15.743564 15.7891667,16.027464 14.9991667,16.027464 C14.2108333,16.027464 13.5375,15.743564 12.9791667,15.174064 C12.4225,14.604564 12.1425,13.919464 12.1425,13.113664 L7.8575,13.113664 C7.8575,13.919464 7.5775,14.604564 7.01916667,15.174064 C6.46083333,15.743564 5.78916667,16.027464 4.99916667,16.027464 C4.21083333,16.027464 3.5375,15.743564 2.97916667,15.174064 C2.4225,14.604564 2.1425,13.919464 2.1425,13.113664 L1.4275,13.113664 C1.40583333,13.113664 1.3225,13.115364 1.1775,13.118764 C1.0325,13.123864 0.9375,13.123864 0.8925,13.118764 C0.8475,13.115364 0.764166667,13.108564 0.640833333,13.096664 C0.5175,13.084764 0.430833333,13.062664 0.379166667,13.028664 C0.3275,12.994664 0.265833333,12.950464 0.195833333,12.897764 C0.124166667,12.845064 0.0741666667,12.775364 0.0441666667,12.686964 C0.0141666667,12.600264 -0.000833333333,12.499964 -0.000833333333,12.386064 C-0.000833333333,12.188864 0.0691666667,12.017164 0.210833333,11.872664 C0.3525,11.729864 0.520833333,11.656764 0.714166667,11.656764 L0.714166667,8.013664 C0.714166667,7.954164 0.7125,7.819864 0.709166667,7.615864 C0.704166667,7.410164 0.704166667,7.267364 0.709166667,7.182364 C0.7125,7.099064 0.720833333,6.968164 0.735833333,6.789664 C0.750833333,6.612864 0.775833333,6.471764 0.809166667,6.369764 C0.8425,6.266064 0.894166667,6.150464 0.965833333,6.022964 C1.03583333,5.892064 1.11916667,5.779864 1.21583333,5.679564 L3.42583333,3.427064 C3.5675,3.282564 3.75583333,3.160164 3.99083333,3.061564 C4.22416667,2.962964 4.4425,2.913664 4.6425,2.913664 L6.4275,2.913664 L6.4275,0.727464 C6.4275,0.531964 6.49916667,0.360264 6.64083333,0.215764 C6.78083333,0.072964 6.94916667,-0.000136 7.1425,-0.000136 L18.5708333,-0.000136 C18.7641667,-0.000136 18.9325,0.072964 19.0725,0.215764 C19.2141667,0.360264 19.2858333,0.531964 19.2858333,0.727464 Z" id="Fill-1" fill="#424242" mask="url(#mask-2)"></path>
        </g>
    </g>
</svg>