<?xml version="1.0" encoding="UTF-8" standalone="no"?>
<svg width="135px" height="135px" viewBox="0 0 135 135" version="1.1" xmlns="http://www.w3.org/2000/svg" xmlns:xlink="http://www.w3.org/1999/xlink">
    <!-- Generator: Sketch 50.2 (55047) - http://www.bohemiancoding.com/sketch -->
    <title>icon/ info big</title>
    <desc>Created with Sketch.</desc>
    <defs></defs>
    <g id="icon/-info-big" stroke="none" stroke-width="1" fill="none" fill-rule="evenodd">
        <g id="baseline-error-24px">
            <polygon id="Shape" points="0 0 135 0 135 135 0 135"></polygon>
            <path d="M67.5,0 C30.24,0 0,30.24 0,67.5 C0,104.76 30.24,135 67.5,135 C104.76,135 135,104.76 135,67.5 C135,30.24 104.76,0 67.5,0 Z M74.25,101.25 L60.75,101.25 L60.75,87.75 L74.25,87.75 L74.25,101.25 Z M74.25,74.25 L60.75,74.25 L60.75,33.75 L74.25,33.75 L74.25,74.25 Z" id="Shape" fill="#424242" fill-rule="nonzero" transform="translate(67.500000, 67.500000) scale(1, -1) translate(-67.500000, -67.500000) "></path>
        </g>
    </g>
</svg>