<?xml version="1.0" encoding="UTF-8" standalone="no"?>
<svg width="135px" height="135px" viewBox="0 0 135 135" version="1.1" xmlns="http://www.w3.org/2000/svg" xmlns:xlink="http://www.w3.org/1999/xlink">
    <!-- Generator: Sketch 50.2 (55047) - http://www.bohemiancoding.com/sketch -->
    <title>icon / OSP_Vertical</title>
    <desc>Created with Sketch.</desc>
    <defs>
        <linearGradient x1="50.0185483%" y1="4.0168088%" x2="50.0185483%" y2="97.4663206%" id="linearGradient-1">
            <stop stop-color="#BBBA32" offset="0%"></stop>
            <stop stop-color="#B8B82D" offset="39%"></stop>
            <stop stop-color="#AEB020" offset="85%"></stop>
            <stop stop-color="#AAAD19" offset="100%"></stop>
        </linearGradient>
        <linearGradient x1="1.53256705%" y1="49.9938203%" x2="91.8427883%" y2="49.9938203%" id="linearGradient-2">
            <stop stop-color="#BBBA32" offset="0%"></stop>
            <stop stop-color="#B8B82D" offset="39%"></stop>
            <stop stop-color="#AEB020" offset="85%"></stop>
            <stop stop-color="#AAAD19" offset="100%"></stop>
        </linearGradient>
        <linearGradient x1="50%" y1="5.21567173%" x2="50%" y2="98.8629341%" id="linearGradient-3">
            <stop stop-color="#4EB1E4" offset="0%"></stop>
            <stop stop-color="#49AFE2" offset="22%"></stop>
            <stop stop-color="#3BA8DE" offset="48%"></stop>
            <stop stop-color="#259CD6" offset="75%"></stop>
            <stop stop-color="#088ECC" offset="100%"></stop>
        </linearGradient>
        <linearGradient x1="3.95501174%" y1="49.9938203%" x2="100.605611%" y2="49.9938203%" id="linearGradient-4">
            <stop stop-color="#4EB1E4" offset="0%"></stop>
            <stop stop-color="#49AFE2" offset="22%"></stop>
            <stop stop-color="#3BA8DE" offset="48%"></stop>
            <stop stop-color="#259CD6" offset="75%"></stop>
            <stop stop-color="#088ECC" offset="100%"></stop>
        </linearGradient>
        <linearGradient x1="4.47577165%" y1="50.0123667%" x2="98.9737884%" y2="50.0123667%" id="linearGradient-5">
            <stop stop-color="#4EB1E4" offset="0%"></stop>
            <stop stop-color="#49AFE2" offset="22%"></stop>
            <stop stop-color="#3BA8DE" offset="48%"></stop>
            <stop stop-color="#259CD6" offset="75%"></stop>
            <stop stop-color="#088ECC" offset="100%"></stop>
        </linearGradient>
    </defs>
    <g id="Symbols" stroke="none" stroke-width="1" fill="none" fill-rule="evenodd">
        <g id="icon-/-OSP_Vertical" fill-rule="nonzero">
            <g id="OSP_Vertical">
                <path d="M33.5619494,23.1716418 C31.7179215,23.1700611 30.2238799,21.6754763 30.2238806,19.8323593 L30.2238806,3.33641857 C30.2254605,1.49441995 31.7190397,0.00157908242 33.5619494,0 L50.0660494,0 C51.9049479,0.00787224923 53.3923877,1.49841501 53.3955224,3.33641857 L53.3955224,23.1716418 L33.5619494,23.1716418 Z" id="Shape" fill="url(#linearGradient-1)"></path>
                <path d="M59.754329,26.1940299 L79.5895522,26.1940299 L79.5895522,46.0263892 C79.5895522,46.912022 79.237736,47.7613815 78.6114991,48.3876185 C77.9852621,49.0138554 77.1359026,49.3656716 76.2502698,49.3656716 L59.754329,49.3656716 C57.9116759,49.3656716 56.4179104,47.8719062 56.4179104,46.0292531 L56.4179104,29.5333123 C56.4179098,27.6901954 57.9112128,26.1956106 59.754329,26.1940299 Z" id="Shape" fill="url(#linearGradient-2)" transform="translate(68.003731, 37.779851) rotate(90.000000) translate(-68.003731, -37.779851) "></path>
                <path d="M59.7547414,23.1716418 C57.9113973,23.1700611 56.4179098,21.6754763 56.4179104,19.8323593 L56.4179104,3.33641857 C56.4194897,1.49441995 57.9125151,0.00157908242 59.7547414,0 L76.2527213,0 C78.0942944,0.0031529958 79.5863989,1.49507307 79.5895522,3.33641857 L79.5895522,23.1716418 L59.7547414,23.1716418 Z" id="Shape" fill="url(#linearGradient-3)"></path>
                <path d="M85.9483589,26.1940299 L105.783582,26.1940299 L105.783582,46.0263892 C105.783582,46.912022 105.431766,47.7613815 104.805529,48.3876185 C104.179292,49.0138554 103.329932,49.3656716 102.4443,49.3656716 L85.9483589,49.3656716 C84.1057058,49.3656716 82.6119403,47.8719062 82.6119403,46.0292531 L82.6119403,29.5333123 C82.6119396,27.6901954 84.1052426,26.1956106 85.9483589,26.1940299 Z" id="Shape" fill="url(#linearGradient-4)" transform="translate(94.197761, 37.779851) rotate(90.000000) translate(-94.197761, -37.779851) "></path>
                <path d="M33.5644027,52.3880609 L53.3955224,52.3880597 L53.3955224,72.2277754 C53.3923735,74.0655238 51.9042062,75.5549718 50.0664613,75.5597015 L33.5644027,75.5597015 C31.719484,75.5597015 30.2238818,74.0640994 30.2238818,72.2191806 L30.2238818,55.7285818 C30.2231208,54.8423875 30.5748232,53.9922707 31.2014574,53.3656365 C31.8280916,52.7390023 32.6782084,52.3872999 33.5644027,52.3880609 Z" id="Shape" fill="url(#linearGradient-5)" transform="translate(41.809701, 63.973881) rotate(90.000000) translate(-41.809701, -63.973881) "></path>
                <path d="M85.9487713,23.1716418 C84.1054272,23.1700611 82.6119396,21.6754763 82.6119403,19.8323593 L82.6119403,3.33641857 C82.6135196,1.49441995 84.106545,0.00157908242 85.9487713,0 L102.446751,0 C104.288324,0.0031529958 105.780429,1.49507307 105.783582,3.33641857 L105.783582,23.1716418 L85.9487713,23.1716418 Z" id="Shape" fill="#56585A"></path>
                <path d="M33.5619494,26.1940299 L53.3955224,26.1940299 L53.3955224,46.0288407 C53.3955224,46.9138233 53.043834,47.7625593 52.4178247,48.3883365 C51.7918153,49.0141137 50.9427645,49.3656716 50.0574536,49.3656716 L33.5619494,49.3656716 C31.7183849,49.3656716 30.2238806,47.8717215 30.2238806,46.0288407 L30.2238806,29.5308608 C30.2238806,27.68798 31.7183849,26.1940299 33.5619494,26.1940299 Z" id="Shape" fill="#56585A" transform="translate(41.809701, 37.779851) rotate(90.000000) translate(-41.809701, -37.779851) "></path>
                <path d="M59.7567802,52.3880597 L79.5895522,52.3880597 L79.5895522,72.2277753 C79.5848164,74.0693367 78.0913397,75.5597076 76.2506825,75.5597015 L59.7567802,75.5597015 C57.9127734,75.5597015 56.4179104,74.0640993 56.4179104,72.2191804 L56.4179104,55.7285808 C56.4179104,53.8836619 57.9127734,52.3880597 59.7567802,52.3880597 Z" id="Shape" fill="#56585A" transform="translate(68.003731, 63.973881) rotate(90.000000) translate(-68.003731, -63.973881) "></path>
                <g id="_Group_" transform="translate(0.000000, 81.604478)">
                    <g id="_Group_2" transform="translate(1.687500, 42.022508)" fill="#36A9E1">
                        <path d="M0.9084375,7.85820896 C1.25377222,8.22335688 1.66622608,8.5191242 2.1234375,8.72947562 C2.57492663,8.94739498 3.07017311,9.06042514 3.571875,9.06005268 C4.10413299,9.09449507 4.63165005,8.94181599 5.0625,8.6286216 C5.40791035,8.35416347 5.60373524,7.93395652 5.59125,7.49401389 C5.59694293,7.2792112 5.55467547,7.06582982 5.4675,6.86927927 C5.38308261,6.70497552 5.26527445,6.55996082 5.1215625,6.44345119 C4.96779831,6.31201625 4.79764187,6.2009055 4.6153125,6.11287413 C4.4184375,6.01482161 4.2075,5.91116609 3.9825,5.80470907 L2.59875,5.20518796 C2.36214395,5.1014371 2.13203832,4.98355988 1.9096875,4.8521989 C1.67578417,4.71713738 1.46265379,4.54918699 1.276875,4.35353181 C1.08150474,4.14692885 0.926936899,3.90552955 0.82125,3.64195067 C0.568392943,3.01558159 0.586714507,2.31296007 0.871875,1.70051081 C1.02240813,1.38795364 1.2381463,1.11097859 1.5046875,0.888075664 C1.78651881,0.650968685 2.11102806,0.469383793 2.4609375,0.352989065 C2.85120904,0.221387191 3.26113414,0.156965172 3.673125,0.16248703 C4.22483925,0.156749327 4.77141598,0.268502618 5.27625,0.490262591 C5.74388112,0.695013439 6.16850382,0.985859242 6.5278125,1.34752175 L5.866875,2.1403464 C5.5817611,1.86342166 5.25060771,1.63782894 4.888125,1.47358927 C4.50546576,1.30615759 4.09101838,1.22301892 3.673125,1.22985873 C3.2092679,1.20759124 2.75115348,1.33965874 2.3709375,1.6052598 C2.04699492,1.84765535 1.86305746,2.23293683 1.87875,2.63621199 C1.87210779,2.84308487 1.92063023,3.04801543 2.019375,3.2301301 C2.11474448,3.39518847 2.24185716,3.53989196 2.3934375,3.65595818 C2.55361023,3.78042493 2.72605721,3.88836943 2.908125,3.97813074 C3.09375,4.07058025 3.2878125,4.15742677 3.470625,4.23586878 L4.8403125,4.82138239 C5.11218592,4.9371244 5.37454933,5.07388157 5.625,5.23040147 C5.86108605,5.37360026 6.07437644,5.55111925 6.2578125,5.75708357 C6.43884396,5.96444602 6.58080787,6.202658 6.676875,6.4602602 C7.05952449,7.47506472 6.76911718,8.61986528 5.9484375,9.33179823 C5.64673897,9.59170103 5.29710289,9.79057576 4.9190625,9.91731184 C4.47905611,10.0657942 4.0166959,10.1378146 3.5521875,10.1302259 C2.27896351,10.1392304 1.05822386,9.625485 0.1771875,8.70986511 L0.9084375,7.85820896 Z" id="_Compound_Path_"></path>
                        <path d="M10.20375,0.341783063 L11.6465625,0.341783063 L13.5140625,5.49934552 L14.22,7.46039588 L14.2790625,7.46039588 L14.956875,5.49934552 L16.8103125,0.341783063 L18.2503125,0.341783063 L18.2503125,9.95373134 L17.08875,9.95373134 L17.08875,4.66449836 C17.08875,4.23586878 17.105625,3.7624152 17.1421875,3.2441376 C17.17875,2.72586 17.2125,2.25240642 17.251875,1.82097534 L17.1928125,1.82097534 L16.41375,3.96132173 L14.5603125,8.98721366 L13.8684375,8.98721366 L12.0009375,3.96132173 L11.25,1.82097534 L11.1909375,1.82097534 C11.2190625,2.25240642 11.2528125,2.72586 11.2921875,3.2441376 C11.3315625,3.7624152 11.35125,4.23586878 11.35125,4.66449836 L11.35125,9.95373134 L10.22625,9.95373134 L10.20375,0.341783063 Z" id="_Compound_Path_2"></path>
                        <path d="M26.7834375,7.0233618 L23.2678125,7.0233618 L22.3396875,9.95373134 L21.09375,9.95373134 L24.35625,0.341783063 L25.74,0.341783063 L29.0053125,9.95373134 L27.6946875,9.95373134 L26.7834375,7.0233618 Z M26.4740625,6.04283662 L26.0184375,4.57765185 C25.8403125,4.03976375 25.6734375,3.50467715 25.5178125,2.97239205 C25.3621875,2.44010695 25.205625,1.89568202 25.048125,1.33911725 L24.9890625,1.33911725 C24.8428125,1.89941735 24.688125,2.44010695 24.5334375,2.97239205 C24.37875,3.50467715 24.21,4.03976375 24.0328125,4.57765185 L23.5771875,6.04283662 L26.4740625,6.04283662 Z" id="_Compound_Path_3"></path>
                        <path d="M37.1390625,9.95373134 L34.8159375,5.89715859 L33.06375,5.89715859 L33.06375,9.95373134 L31.843125,9.95373134 L31.843125,0.341783063 L34.858125,0.341783063 C35.3156558,0.338675119 35.7721445,0.385648614 36.219375,0.481858089 C36.60539,0.561377642 36.9710038,0.718682215 37.29375,0.944105675 C37.59348,1.16139824 37.8333731,1.45045658 37.99125,1.78455583 C38.1702695,2.18021803 38.2558978,2.61147714 38.2415625,3.04523106 C38.274554,3.69724095 38.0652972,4.33851327 37.65375,4.8465959 C37.2378137,5.31013225 36.6873603,5.63323795 36.07875,5.77109107 L38.53125,9.95373134 L37.1390625,9.95373134 Z M33.06375,4.91103041 L34.68375,4.91103041 C35.2973629,4.95003297 35.9069016,4.78766578 36.4190625,4.44878282 C36.8370502,4.10760321 37.0616942,3.58478689 37.0209375,3.04803256 C37.0209375,2.41209195 36.82125,1.96945486 36.4190625,1.71451832 C35.8874181,1.42933203 35.2864954,1.29739384 34.68375,1.33351425 L33.06375,1.33351425 L33.06375,4.91103041 Z" id="_Compound_Path_4"></path>
                        <polygon id="_Compound_Path_5" points="43.5684375 1.36713225 40.6546875 1.36713225 40.6546875 0.341783063 47.7140625 0.341783063 47.7140625 1.36713225 44.803125 1.36713225 44.803125 9.95373134 43.5684375 9.95373134"></polygon>
                        <path d="M55.3640625,0.341783063 L58.32,0.341783063 C58.8096184,0.337984687 59.298174,0.387776536 59.776875,0.490262591 C60.1804472,0.571286552 60.5632258,0.733331196 60.901875,0.966517679 C61.2141038,1.19010558 61.4630787,1.49021596 61.6246875,1.83778434 C61.8078311,2.25800401 61.8952378,2.71342042 61.880625,3.17129859 C61.8918978,3.62437702 61.8045865,4.07451797 61.6246875,4.49080533 C61.4586392,4.85119909 61.2089639,5.16711387 60.89625,5.412499 C60.5619867,5.67129411 60.179657,5.86171133 59.77125,5.97279911 C59.2982147,6.09971666 58.8098569,6.16099401 58.32,6.15489664 L56.5846875,6.15489664 L56.5846875,9.96493735 L55.3640625,9.96493735 L55.3640625,0.341783063 Z M58.1765625,5.14915795 C59.0203125,5.14915795 59.645625,4.99040626 60.0525,4.67290287 C60.459375,4.35539947 60.6628125,3.85486471 60.6628125,3.17129859 C60.6628125,2.47652646 60.4565625,1.9956022 60.0440625,1.72852582 C59.6334375,1.44837577 59.0090625,1.32510975 58.1765625,1.32510975 L56.5875,1.32510975 L56.5875,5.14915795 L58.1765625,5.14915795 Z" id="_Compound_Path_6"></path>
                        <polygon id="_Compound_Path_7" points="65.3090625 0.341783063 66.5296875 0.341783063 66.5296875 8.91437465 70.7484375 8.91437465 70.7484375 9.95373134 65.3090625 9.95373134"></polygon>
                        <path d="M78.384375,7.0233618 L74.86875,7.0233618 L73.9434375,9.95373134 L72.691875,9.95373134 L75.9571875,0.341783063 L77.34375,0.341783063 L80.6090625,9.95373134 L79.3125,9.95373134 L78.384375,7.0233618 Z M78.075,6.04283662 L77.625,4.57765185 C77.44875,4.03976375 77.281875,3.50467715 77.124375,2.97239205 C76.966875,2.44010695 76.8121875,1.89661585 76.6546875,1.33911725 L76.595625,1.33911725 C76.449375,1.89941735 76.2975,2.44384229 76.14,2.97239205 C75.9825,3.50094181 75.815625,4.03602841 75.639375,4.57765185 L75.18375,6.04283662 L78.075,6.04283662 Z" id="_Compound_Path_8"></path>
                        <polygon id="_Compound_Path_9" points="84.85875 1.36713225 81.945 1.36713225 81.945 0.341783063 89.0071875 0.341783063 89.0071875 1.36713225 86.0934375 1.36713225 86.0934375 9.95373134 84.85875 9.95373134"></polygon>
                        <polygon id="_Compound_Path_10" points="92.2134375 0.341783063 97.77375 0.341783063 97.77375 1.36713225 93.4340625 1.36713225 93.4340625 4.62247586 97.11 4.62247586 97.11 5.64782505 93.4340625 5.64782505 93.4340625 9.95373134 92.2134375 9.95373134"></polygon>
                        <path d="M104.363437,10.1302259 C103.787553,10.1366009 103.217275,10.0170623 102.692812,9.78003831 C102.189342,9.54497147 101.74457,9.20145399 101.390625,8.77429962 C101.010369,8.305268 100.723946,7.76794756 100.546875,7.19145183 C100.338262,6.51555606 100.236729,5.81139181 100.245937,5.10433395 C100.236252,4.40183806 100.337811,3.70221309 100.546875,3.03122356 C100.723988,2.46409077 101.010604,1.93687681 101.390625,1.47919227 C101.745091,1.06031431 102.190323,0.726978001 102.692812,0.504270093 C103.219598,0.275930018 103.788975,0.161354263 104.363437,0.168090031 C104.938018,0.159727556 105.50741,0.277369005 106.03125,0.512674595 C106.534959,0.739937846 106.982384,1.07467192 107.341875,1.49319978 C107.72361,1.94972998 108.010419,2.47729937 108.185625,3.04523106 C108.396448,3.71107582 108.498994,4.40622435 108.489375,5.10433395 C108.498974,5.81162408 108.396463,6.51599266 108.185625,7.19145183 C108.011821,7.76928897 107.725076,8.30721181 107.341875,8.77429962 C106.984209,9.20110054 106.536792,9.54443652 106.03125,9.78003831 C105.507821,10.0171839 104.938429,10.1367379 104.363437,10.1302259 Z M104.363437,9.06005268 C104.770742,9.06490054 105.172845,8.96861915 105.533437,8.77990263 C105.890305,8.58622843 106.197368,8.31296547 106.430625,7.98147498 C106.695017,7.60261566 106.891077,7.18074407 107.01,6.73480725 C107.153748,6.20242287 107.222841,5.65278468 107.215312,5.10153244 C107.222576,4.5576713 107.153469,4.01546916 107.01,3.49066965 C106.893466,3.05338696 106.697064,2.64122658 106.430625,2.27481842 C106.193269,1.95431805 105.886656,1.69103056 105.533437,1.50440578 C104.7958,1.14227532 103.931075,1.14227532 103.193437,1.50440578 C102.839668,1.69022794 102.53289,1.95365789 102.29625,2.27481842 C102.028872,2.64104877 101.831516,3.05321102 101.714062,3.49066965 C101.570593,4.01546916 101.501487,4.5576713 101.50875,5.10153244 C101.501222,5.65278468 101.570315,6.20242287 101.714062,6.73480725 C101.833904,7.18091112 102.030917,7.60278467 102.29625,7.98147498 C102.52881,8.31358084 102.836034,8.58698642 103.193437,8.77990263 C103.553903,8.96895351 103.956093,9.06525558 104.363437,9.06005268 Z" id="_Compound_Path_11"></path>
                        <path d="M117.3375,9.95373134 L115.011562,5.89715859 L113.262187,5.89715859 L113.262187,9.95373134 L112.041562,9.95373134 L112.041562,0.341783063 L115.056562,0.341783063 C115.514087,0.33881048 115.970561,0.385782449 116.417812,0.481858089 C116.803827,0.561377642 117.169441,0.718682215 117.492187,0.944105675 C117.791918,1.16139824 118.031811,1.45045658 118.189687,1.78455583 C118.367386,2.18063727 118.452954,2.61159017 118.44,3.04523106 C118.472992,3.69724095 118.263735,4.33851327 117.852187,4.8465959 C117.436251,5.31013225 116.885798,5.63323795 116.277187,5.77109107 L118.718437,9.95933434 L117.3375,9.95373134 Z M113.262187,4.91103041 L114.879375,4.91103041 C115.492988,4.95003297 116.102527,4.78766578 116.614687,4.44878282 C117.033332,4.10789145 117.258973,3.58519745 117.219375,3.04803256 C117.219375,2.41209195 117.016875,1.96945486 116.614687,1.71451832 C116.083043,1.42933203 115.48212,1.29739384 114.879375,1.33351425 L113.262187,1.33351425 L113.262187,4.91103041 Z" id="_Compound_Path_12"></path>
                        <path d="M122.0625,0.341783063 L123.5025,0.341783063 L125.37,5.49934552 L126.075937,7.46039588 L126.135,7.46039588 L126.812812,5.49934552 L128.66625,0.341783063 L130.10625,0.341783063 L130.10625,9.95373134 L128.944687,9.95373134 L128.944687,4.66449836 C128.944687,4.23586878 128.961562,3.7624152 128.998125,3.2441376 C129.034687,2.72586 129.068437,2.25240642 129.107812,1.82097534 L129.04875,1.82097534 L128.269687,3.96132173 L126.413437,8.98721366 L125.71875,8.98721366 L123.85125,3.96132173 L123.08625,1.82097534 L123.027187,1.82097534 C123.055312,2.25240642 123.089062,2.72586 123.128437,3.2441376 C123.167812,3.7624152 123.1875,4.23586878 123.1875,4.66449836 L123.1875,9.95373134 L122.0625,9.95373134 L122.0625,0.341783063 Z" id="_Compound_Path_13"></path>
                    </g>
                    <g id="_Group_3" fill="#53575A">
                        <path d="M122.34375,10.561657 C115.284375,10.561657 109.738125,15.985362 109.738125,23.0731583 C109.738125,30.1609546 115.273125,35.5790566 122.34375,35.5790566 C129.414375,35.5790566 134.949375,30.1553516 134.949375,23.0759598 C134.949375,15.996568 129.394687,10.561657 122.34375,10.561657 M122.34375,14.8815708 C126.84375,14.8815708 130.415625,18.5991619 130.415625,23.0731583 C130.415625,27.4911246 126.8325,31.2591428 122.34375,31.2591428 C117.855,31.2591428 114.280312,27.4911246 114.280312,23.0731583 C114.280312,18.5907574 117.857812,14.8815708 122.34375,14.8815708" id="_Compound_Path_14"></path>
                        <path d="M64.0040625,31.2563413 C59.5040625,31.2563413 55.9378125,27.4911246 55.9378125,23.0703568 C55.9378125,18.5879559 59.5153125,14.8815708 64.0040625,14.8815708 C68.4928125,14.8815708 72.073125,18.5991619 72.073125,23.0703568 C72.073125,27.4911246 68.495625,31.2563413 64.0040625,31.2563413 Z M72,11.2592306 L72,13.9458696 L71.836875,13.9458696 C69.9975,11.8867667 67.005,10.561657 63.88875,10.561657 C56.8265625,10.561657 51.283125,15.985362 51.283125,23.0703568 C51.283125,30.1553516 56.8125,35.5790566 63.8803125,35.5790566 C66.9965625,35.5790566 69.9890625,34.2091228 71.8284375,32.1920425 L72,32.1920425 L72,34.8198499 L76.53375,34.8198499 L76.53375,11.2592306 L72,11.2592306 Z" id="_Compound_Path_15"></path>
                        <path d="M93.166875,31.2563413 C88.666875,31.2563413 85.0978125,27.4911246 85.0978125,23.0703568 C85.0978125,18.5879559 88.678125,14.8815708 93.166875,14.8815708 C97.655625,14.8815708 101.25,18.5991619 101.25,23.0703568 C101.25,27.4911246 97.66125,31.2563413 93.1725,31.2563413 L93.166875,31.2563413 Z M101.14875,0 L101.14875,13.9598771 L100.982812,13.9598771 C99.151875,11.9007742 96.1565625,10.5756645 93.0403125,10.5756645 C85.98375,10.5756645 80.4375,15.9993695 80.4375,23.0843643 C80.4375,30.1693591 85.98375,35.5790566 93.0403125,35.5790566 C96.1565625,35.5790566 99.151875,34.2091228 100.982812,32.1920425 L101.14875,32.1920425 L101.14875,34.8198499 L105.688125,34.8198499 L105.688125,0 L101.14875,0 Z" id="_Compound_Path_16"></path>
                        <path d="M47.1571875,28.6817623 C45.6563074,30.3352347 43.5253697,31.2821173 41.2875,31.2899593 C36.7875,31.2899593 33.2240625,27.5191396 33.2240625,23.1039748 C33.2240625,18.6215739 36.79875,14.9095858 41.2875,14.9095858 C43.5247424,14.9121343 45.6566954,15.8564154 47.1571875,17.5093782 L49.35375,13.399577 C47.0728993,11.5615526 44.2211772,10.571117 41.2875,10.5980765 C34.2253125,10.5980765 28.6846875,16.0217815 28.6846875,23.1095778 C28.6846875,30.1973741 34.2253125,35.6154761 41.2875,35.6154761 C44.2207141,35.6396377 47.0715155,34.6495219 49.35375,32.8139756 L47.1571875,28.6817623 Z" id="_Path_"></path>
                        <path d="M12.6,10.561657 C5.540625,10.561657 0,15.985362 0,23.0731583 C0,30.1609546 5.540625,35.5790566 12.6,35.5790566 C19.659375,35.5790566 25.205625,30.1553516 25.205625,23.0759598 C25.205625,15.996568 19.659375,10.561657 12.6,10.561657 M12.6,14.8815708 C17.1,14.8815708 20.6746875,18.5991619 20.6746875,23.0731583 C20.6746875,27.4911246 17.094375,31.2591428 12.6,31.2591428 C8.105625,31.2591428 4.53375,27.4911246 4.53375,23.0731583 C4.53375,18.5907574 8.116875,14.8815708 12.6,14.8815708" id="_Compound_Path_17"></path>
                    </g>
                </g>
            </g>
        </g>
    </g>
</svg>