<?xml version="1.0" encoding="UTF-8" standalone="no"?>
<svg width="135px" height="135px" viewBox="0 0 135 135" version="1.1" xmlns="http://www.w3.org/2000/svg" xmlns:xlink="http://www.w3.org/1999/xlink">
    <!-- Generator: Sketch 50.2 (55047) - http://www.bohemiancoding.com/sketch -->
    <title>icon/ OSP</title>
    <desc>Created with Sketch.</desc>
    <defs></defs>
    <g id="icon/-OSP" stroke="none" stroke-width="1" fill="none" fill-rule="evenodd">
        <g id="baseline-warning-24px-(1)">
            <polygon id="Shape" points="0 0 135 0 135 135 0 135"></polygon>
        </g>
        <g id="Group" fill="#1C7CB0">
            <path d="M41.2105263,27 L41.2105263,41.2105263 L27,41.2105263 L4,41.2105263 C1.790861,41.2105263 2.705415e-16,39.4196653 0,37.2105263 L0,4 C-2.705415e-16,1.790861 1.790861,4.05812251e-16 4,0 L37.2105263,0 C39.4196653,-4.05812251e-16 41.2105263,1.790861 41.2105263,4 L41.2105263,27 Z" id="Combined-Shape"></path>
            <path d="M41.2105263,73.8947368 L41.2105263,88.1052632 L27,88.1052632 L4,88.1052632 C1.790861,88.1052632 2.705415e-16,86.3144022 0,84.1052632 L0,50.8947368 C-2.705415e-16,48.6855978 1.790861,46.8947368 4,46.8947368 L37.2105263,46.8947368 C39.4196653,46.8947368 41.2105263,48.6855978 41.2105263,50.8947368 L41.2105263,73.8947368 Z" id="Combined-Shape-Copy"></path>
            <path d="M41.2105263,120.789474 L41.2105263,135 L27,135 L4,135 C1.790861,135 2.705415e-16,133.209139 0,131 L0,97.7894737 C-2.705415e-16,95.5803347 1.790861,93.7894737 4,93.7894737 L37.2105263,93.7894737 C39.4196653,93.7894737 41.2105263,95.5803347 41.2105263,97.7894737 L41.2105263,120.789474 Z" id="Combined-Shape-Copy-2"></path>
            <path d="M88.1052632,27 L88.1052632,41.2105263 L73.8947368,41.2105263 L50.8947368,41.2105263 C48.6855978,41.2105263 46.8947368,39.4196653 46.8947368,37.2105263 L46.8947368,4 C46.8947368,1.790861 48.6855978,4.05812251e-16 50.8947368,0 L84.1052632,0 C86.3144022,-4.05812251e-16 88.1052632,1.790861 88.1052632,4 L88.1052632,27 Z" id="Combined-Shape"></path>
            <path d="M88.1052632,73.8947368 L88.1052632,88.1052632 L73.8947368,88.1052632 L50.8947368,88.1052632 C48.6855978,88.1052632 46.8947368,86.3144022 46.8947368,84.1052632 L46.8947368,50.8947368 C46.8947368,48.6855978 48.6855978,46.8947368 50.8947368,46.8947368 L84.1052632,46.8947368 C86.3144022,46.8947368 88.1052632,48.6855978 88.1052632,50.8947368 L88.1052632,73.8947368 Z" id="Combined-Shape-Copy"></path>
            <path d="M88.1052632,120.789474 L88.1052632,135 L73.8947368,135 L50.8947368,135 C48.6855978,135 46.8947368,133.209139 46.8947368,131 L46.8947368,97.7894737 C46.8947368,95.5803347 48.6855978,93.7894737 50.8947368,93.7894737 L84.1052632,93.7894737 C86.3144022,93.7894737 88.1052632,95.5803347 88.1052632,97.7894737 L88.1052632,120.789474 Z" id="Combined-Shape-Copy-2"></path>
            <path d="M135,27 L135,41.2105263 L120.789474,41.2105263 L97.7894737,41.2105263 C95.5803347,41.2105263 93.7894737,39.4196653 93.7894737,37.2105263 L93.7894737,4 C93.7894737,1.790861 95.5803347,4.05812251e-16 97.7894737,0 L131,0 C133.209139,-4.05812251e-16 135,1.790861 135,4 L135,27 Z" id="Combined-Shape"></path>
            <path d="M135,73.8947368 L135,88.1052632 L120.789474,88.1052632 L97.7894737,88.1052632 C95.5803347,88.1052632 93.7894737,86.3144022 93.7894737,84.1052632 L93.7894737,50.8947368 C93.7894737,48.6855978 95.5803347,46.8947368 97.7894737,46.8947368 L131,46.8947368 C133.209139,46.8947368 135,48.6855978 135,50.8947368 L135,73.8947368 Z" id="Combined-Shape-Copy"></path>
        </g>
    </g>
</svg>