<?xml version="1.0" encoding="UTF-8" standalone="no"?>
<svg width="135px" height="135px" viewBox="0 0 135 135" version="1.1" xmlns="http://www.w3.org/2000/svg" xmlns:xlink="http://www.w3.org/1999/xlink">
    <!-- Generator: Sketch 50.2 (55047) - http://www.bohemiancoding.com/sketch -->
    <title>icon/ scan vehicle</title>
    <desc>Created with Sketch.</desc>
    <defs></defs>
    <g id="icon/-scan-vehicle" stroke="none" stroke-width="1" fill="none" fill-rule="evenodd">
        <path d="M89.9192015,88.0495282 C90.9561009,86.9918908 91.4776184,85.7277325 91.4776184,84.2758279 C91.4776184,82.8239233 90.9561009,81.5660232 89.9192015,80.5021275 C88.8761666,79.4444901 87.6429312,78.9125423 86.2194953,78.9125423 C84.7960595,78.9125423 83.5628241,79.4444901 82.5197891,80.5021275 C81.4828897,81.5660232 80.9613723,82.8239233 80.9613723,84.2758279 C80.9613723,85.7277325 81.4828897,86.9918908 82.5197891,88.0495282 C83.5628241,89.1071656 84.7960595,89.6391134 86.2194953,89.6391134 C87.6429312,89.6391134 88.8761666,89.1071656 89.9192015,88.0495282 Z M53.1062046,88.0495282 C54.143104,86.9918908 54.6646215,85.7277325 54.6646215,84.2758279 C54.6646215,82.8239233 54.143104,81.5660232 53.1062046,80.5021275 C52.0631697,79.4444901 50.8299343,78.9125423 49.4064984,78.9125423 C47.9830626,78.9125423 46.7498272,79.4444901 45.7067923,80.5021275 C44.6698928,81.5660232 44.1483754,82.8239233 44.1483754,84.2758279 C44.1483754,85.7277325 44.6698928,86.9918908 45.7067923,88.0495282 C46.7498272,89.1071656 47.9830626,89.6391134 49.4064984,89.6391134 C50.8299343,89.6391134 52.0631697,89.1071656 53.1062046,88.0495282 Z M38.8902523,62.8226858 L54.6646215,62.8226858 L54.6646215,52.0898566 L48.173263,52.0898566 C47.8174041,52.0898566 47.5167646,52.2150207 47.2713446,52.4653491 L39.2583823,60.6448289 C39.0129623,60.8951573 38.8902523,61.2018095 38.8902523,61.5647857 L38.8902523,62.8226858 Z M102,38.6785137 L102,81.5973142 C102,82.0166142 101.944781,82.3858486 101.834342,82.7050173 C101.723903,83.0304442 101.539838,83.2870308 101.282147,83.4810353 C101.01832,83.6750398 100.791307,83.8377532 100.601106,83.9629174 C100.410906,84.0880816 100.085724,84.1694383 99.6316972,84.2132458 C99.1838057,84.2570532 98.8770308,84.2820861 98.7113723,84.2946025 C98.5457138,84.3133771 98.1959903,84.3133771 97.6622019,84.2946025 C97.1284134,84.2820861 96.8216384,84.2758279 96.7418769,84.2758279 C96.7418769,87.2422191 95.711113,89.7642776 93.6557207,91.8607777 C91.6003284,93.9572779 89.1277221,95.0023989 86.2194953,95.0023989 C83.3174041,95.0023989 80.8386623,93.9572779 78.78327,91.8607777 C76.7340131,89.7642776 75.7032492,87.2422191 75.7032492,84.2758279 L59.9288801,84.2758279 C59.9288801,87.2422191 58.8981161,89.7642776 56.8427238,91.8607777 C54.7873315,93.9572779 52.3147252,95.0023989 49.4064984,95.0023989 C46.5044072,95.0023989 44.0256654,93.9572779 41.9702731,91.8607777 C39.9210162,89.7642776 38.8902523,87.2422191 38.8902523,84.2758279 L36.2581231,84.2758279 C36.1783616,84.2758279 35.8715866,84.2820861 35.3377981,84.2946025 C34.8040097,84.3133771 34.4542862,84.3133771 34.2886277,84.2946025 C34.1229692,84.2820861 33.8161943,84.2570532 33.3621673,84.2132458 C32.9081403,84.1694383 32.5890944,84.0880816 32.3988939,83.9629174 C32.2086934,83.8377532 31.9816799,83.6750398 31.7239889,83.4810353 C31.4601625,83.2870308 31.2760975,83.0304442 31.1656585,82.7050173 C31.0552195,82.3858486 31,82.0166142 31,81.5973142 C31,80.8713619 31.257691,80.2392828 31.7792084,79.7073349 C32.3007259,79.1816454 32.9204113,78.9125423 33.6321293,78.9125423 L33.6321293,65.5011994 C33.6321293,65.2821621 33.6259938,64.7877636 33.6137228,64.0367784 C33.5953163,63.2795351 33.5953163,62.7538455 33.6137228,62.440935 C33.6259938,62.1342828 33.6566713,61.6524006 33.7118908,60.9952886 C33.7671103,60.3444348 33.8591428,59.8250035 33.9818527,59.4495109 C34.1045627,59.0677601 34.2947632,58.6422019 34.5585897,58.1728362 C34.8162807,57.690954 35.1230557,57.2779122 35.4789146,56.9086778 L43.6145869,48.6165503 C44.1361044,48.0846025 44.8294158,47.6340114 45.6945213,47.2710353 C46.5534912,46.9080591 47.3572416,46.726571 48.0935016,46.726571 L54.6646215,46.726571 L54.6646215,38.6785137 C54.6646215,37.9588196 54.928448,37.3267404 55.4499654,36.7947926 C55.9653474,36.269103 56.5850328,36 57.2967508,36 L99.3678707,36 C100.079589,36 100.699274,36.269103 101.214656,36.7947926 C101.736174,37.3267404 102,37.9588196 102,38.6785137 Z" id="Fill-1" fill="#424242"></path>
        <g id="Group" fill="#C9C9C9">
            <path d="M129.041326,88.7532328 C127.513262,89.1753303 126.308029,90.2743186 125.716173,91.7815903 C125.504027,92.3264798 125.473282,93.6296098 125.404104,105.331687 L125.325702,118.280102 L124.95829,119.288531 C124.09126,121.653812 122.627762,123.337597 120.475559,124.44119 C118.498607,125.455759 119.311832,125.400503 104.99661,125.484922 L92.0987659,125.558597 L91.4115983,125.877857 C90.3600935,126.36135 89.6022107,127.062799 89.0718465,128.037461 C88.6229585,128.863237 88.59375,129.002913 88.59375,130.249252 C88.59375,131.424985 88.6398686,131.670569 88.9888329,132.376623 C89.4823023,133.374308 90.5430308,134.33976 91.5668644,134.726555 C92.3447319,135.021255 92.4492675,135.02279 105.754492,134.979813 L119.158104,134.938371 L120.770718,134.503994 C122.676955,133.988268 124.086648,133.420355 125.607026,132.554671 C129.588601,130.289159 132.760025,126.372094 134.138972,122.017583 C135.032136,119.197972 134.999853,119.834956 134.999853,105.331687 L134.999853,92.1039193 L134.586323,91.2919572 C133.550191,89.2520753 131.172007,88.1638312 129.041326,88.7532328" id="Fill-10"></path>
            <path d="M0.409944335,91.3792759 L0.0451373315,92.1485656 L0.0100303814,104.856434 C-0.0189710122,115.459119 0.00850399225,117.791557 0.177933186,118.924762 C0.796120787,123.069099 2.51483495,126.459502 5.5294535,129.482918 C8.31511367,132.274472 11.3205739,133.920538 15.1487578,134.745106 C16.2462316,134.983109 17.2918082,135 29.6952463,135 L43.0587832,135 L43.7548166,134.628407 C45.0690377,133.92668 45.9131309,132.857966 46.2703059,131.443762 C46.8075949,129.315548 45.7116475,126.995394 43.6998666,126.00192 L42.9198818,125.618043 L30.043263,125.542803 C15.663151,125.45835 16.7102539,125.535126 14.4527244,124.411134 C12.8515422,123.61574 11.112985,121.897506 10.3620015,120.366604 C9.32710967,118.258351 9.38969162,119.190405 9.30726661,104.89175 L9.23247354,92.0088344 L8.75624013,91.1274525 C8.05257474,89.8222703 7.0192093,89.0453031 5.57066601,88.7335948 C4.64872697,88.5339787 4.40145193,88.5416563 3.45509066,88.7980862 C2.11950017,89.1589307 1.02202638,90.0879133 0.409944335,91.3792759 Z" id="Fill-8"></path>
            <path d="M92.1433098,0.296755943 C90.843829,0.766725336 89.7263058,1.86179965 89.2456344,3.14090729 C88.8271318,4.25119097 88.9120454,5.83448591 89.4412389,6.87176464 C89.9370734,7.84212215 90.7695296,8.65430227 91.7293561,9.10449949 L92.5026761,9.46648239 L105.294298,9.53492453 L118.08592,9.60488761 L119.095785,9.97447519 C120.478663,10.482468 121.505207,11.1197404 122.510523,12.0961817 C123.565877,13.118251 124.281577,14.2239719 124.845646,15.6947175 L125.277795,16.8171687 L125.353611,29.6477894 C125.406682,38.8585812 125.4734,42.6076898 125.58864,42.936212 C126.07386,44.3385155 127.209579,45.5370135 128.512092,46.0267551 C129.619001,46.4434917 131.197484,46.3598402 132.233126,45.8305543 C133.170208,45.3514593 134.013278,44.4753998 134.462107,43.5187307 L134.818441,42.7567415 L134.857865,30.5497048 C134.897289,18.2316397 134.853316,16.7319963 134.392357,14.7228391 C133.567482,11.130387 131.7009,7.84668496 128.997313,5.23371598 C126.618217,2.93405992 123.935858,1.43745835 120.616647,0.562919839 L119.192829,0.185727575 L105.915987,0.152266971 C95.2547853,0.123369176 92.5436166,0.152266971 92.1433098,0.296755943" id="Fill-3"></path>
            <path d="M15.7708245,0.183583327 C8.84417924,1.42884379 2.97589855,6.54603817 0.91102016,13.1394934 C0.0249829772,15.9711606 0.0707336062,15.1343578 0.0188828933,29.2957535 C-0.0238176938,40.8763698 -0.00551744221,42.3388624 0.194260305,43.0242146 C0.625841239,44.5173033 1.62472997,45.6141728 3.03079931,46.1450148 C4.11508922,46.5550023 5.73923655,46.4739226 6.73050018,45.9614383 C7.6119623,45.5055567 8.39429806,44.7268865 8.86552954,43.8334809 L9.23305959,43.1358903 L9.31541072,30.3008347 C9.40538696,16.1669755 9.35963633,16.8630364 10.2898991,14.9813774 C11.2140618,13.111957 12.7436579,11.5301396 14.5187823,10.6076678 C16.7605631,9.44501676 15.6045972,9.53221559 30.0267205,9.44807637 C42.7941961,9.37311597 42.8963725,9.37005636 43.5323062,9.07480419 C45.3974069,8.20740532 46.5853982,6.19112365 46.3840954,4.23756393 C46.2132931,2.59149483 45.1808539,1.08769749 43.7259839,0.368689612 L43.0305743,0.024483711 L29.9565695,0.00459625901 C19.1365458,-0.013761389 16.6919371,0.018364495 15.7708245,0.183583327" id="Fill-1"></path>
        </g>
    </g>
</svg>