<?xml version="1.0" encoding="UTF-8" standalone="no"?>
<svg width="135px" height="135px" viewBox="0 0 135 135" version="1.1" xmlns="http://www.w3.org/2000/svg" xmlns:xlink="http://www.w3.org/1999/xlink">
    <!-- Generator: Sketch 50.2 (55047) - http://www.bohemiancoding.com/sketch -->
    <title>icon/ scan barcode big</title>
    <desc>Created with Sketch.</desc>
    <defs></defs>
    <g id="icon/-scan-barcode-big" stroke="none" stroke-width="1" fill="none" fill-rule="evenodd">
        <g id="Group" fill="#C9C9C9">
            <path d="M129.041326,88.7532328 C127.513262,89.1753303 126.308029,90.2743186 125.716173,91.7815903 C125.504027,92.3264798 125.473282,93.6296098 125.404104,105.331687 L125.325702,118.280102 L124.95829,119.288531 C124.09126,121.653812 122.627762,123.337597 120.475559,124.44119 C118.498607,125.455759 119.311832,125.400503 104.99661,125.484922 L92.0987659,125.558597 L91.4115983,125.877857 C90.3600935,126.36135 89.6022107,127.062799 89.0718465,128.037461 C88.6229585,128.863237 88.59375,129.002913 88.59375,130.249252 C88.59375,131.424985 88.6398686,131.670569 88.9888329,132.376623 C89.4823023,133.374308 90.5430308,134.33976 91.5668644,134.726555 C92.3447319,135.021255 92.4492675,135.02279 105.754492,134.979813 L119.158104,134.938371 L120.770718,134.503994 C122.676955,133.988268 124.086648,133.420355 125.607026,132.554671 C129.588601,130.289159 132.760025,126.372094 134.138972,122.017583 C135.032136,119.197972 134.999853,119.834956 134.999853,105.331687 L134.999853,92.1039193 L134.586323,91.2919572 C133.550191,89.2520753 131.172007,88.1638312 129.041326,88.7532328" id="Fill-10"></path>
            <path d="M0.409944335,91.3792759 L0.0451373315,92.1485656 L0.0100303814,104.856434 C-0.0189710122,115.459119 0.00850399225,117.791557 0.177933186,118.924762 C0.796120787,123.069099 2.51483495,126.459502 5.5294535,129.482918 C8.31511367,132.274472 11.3205739,133.920538 15.1487578,134.745106 C16.2462316,134.983109 17.2918082,135 29.6952463,135 L43.0587832,135 L43.7548166,134.628407 C45.0690377,133.92668 45.9131309,132.857966 46.2703059,131.443762 C46.8075949,129.315548 45.7116475,126.995394 43.6998666,126.00192 L42.9198818,125.618043 L30.043263,125.542803 C15.663151,125.45835 16.7102539,125.535126 14.4527244,124.411134 C12.8515422,123.61574 11.112985,121.897506 10.3620015,120.366604 C9.32710967,118.258351 9.38969162,119.190405 9.30726661,104.89175 L9.23247354,92.0088344 L8.75624013,91.1274525 C8.05257474,89.8222703 7.0192093,89.0453031 5.57066601,88.7335948 C4.64872697,88.5339787 4.40145193,88.5416563 3.45509066,88.7980862 C2.11950017,89.1589307 1.02202638,90.0879133 0.409944335,91.3792759 Z" id="Fill-8"></path>
            <path d="M92.1433098,0.296755943 C90.843829,0.766725336 89.7263058,1.86179965 89.2456344,3.14090729 C88.8271318,4.25119097 88.9120454,5.83448591 89.4412389,6.87176464 C89.9370734,7.84212215 90.7695296,8.65430227 91.7293561,9.10449949 L92.5026761,9.46648239 L105.294298,9.53492453 L118.08592,9.60488761 L119.095785,9.97447519 C120.478663,10.482468 121.505207,11.1197404 122.510523,12.0961817 C123.565877,13.118251 124.281577,14.2239719 124.845646,15.6947175 L125.277795,16.8171687 L125.353611,29.6477894 C125.406682,38.8585812 125.4734,42.6076898 125.58864,42.936212 C126.07386,44.3385155 127.209579,45.5370135 128.512092,46.0267551 C129.619001,46.4434917 131.197484,46.3598402 132.233126,45.8305543 C133.170208,45.3514593 134.013278,44.4753998 134.462107,43.5187307 L134.818441,42.7567415 L134.857865,30.5497048 C134.897289,18.2316397 134.853316,16.7319963 134.392357,14.7228391 C133.567482,11.130387 131.7009,7.84668496 128.997313,5.23371598 C126.618217,2.93405992 123.935858,1.43745835 120.616647,0.562919839 L119.192829,0.185727575 L105.915987,0.152266971 C95.2547853,0.123369176 92.5436166,0.152266971 92.1433098,0.296755943" id="Fill-3"></path>
            <path d="M15.7708245,0.183583327 C8.84417924,1.42884379 2.97589855,6.54603817 0.91102016,13.1394934 C0.0249829772,15.9711606 0.0707336062,15.1343578 0.0188828933,29.2957535 C-0.0238176938,40.8763698 -0.00551744221,42.3388624 0.194260305,43.0242146 C0.625841239,44.5173033 1.62472997,45.6141728 3.03079931,46.1450148 C4.11508922,46.5550023 5.73923655,46.4739226 6.73050018,45.9614383 C7.6119623,45.5055567 8.39429806,44.7268865 8.86552954,43.8334809 L9.23305959,43.1358903 L9.31541072,30.3008347 C9.40538696,16.1669755 9.35963633,16.8630364 10.2898991,14.9813774 C11.2140618,13.111957 12.7436579,11.5301396 14.5187823,10.6076678 C16.7605631,9.44501676 15.6045972,9.53221559 30.0267205,9.44807637 C42.7941961,9.37311597 42.8963725,9.37005636 43.5323062,9.07480419 C45.3974069,8.20740532 46.5853982,6.19112365 46.3840954,4.23756393 C46.2132931,2.59149483 45.1808539,1.08769749 43.7259839,0.368689612 L43.0305743,0.024483711 L29.9565695,0.00459625901 C19.1365458,-0.013761389 16.6919371,0.018364495 15.7708245,0.183583327" id="Fill-1"></path>
        </g>
        <path d="M20.536592,65.976678 C19.4528932,66.2439716 18.5686757,66.9577671 18.1854027,67.8740577 C17.899629,68.5564664 17.9500596,69.6580401 18.2963502,70.311087 C18.796174,71.251677 19.8316835,71.902699 21.0577088,72.0464705 C22.0181326,72.1578429 114.153822,72.1477181 115.015626,72.0353333 C116.221479,71.8783995 117.200954,71.2466146 117.71983,70.2928624 C117.960776,69.8483855 118,69.6651274 118,68.9908185 C118,68.3357467 117.956293,68.1211018 117.731036,67.6887746 C117.384746,67.0245905 116.753802,66.4535541 116.017515,66.1406991 L115.444847,65.8977049 L68.2260624,65.8794804 C31.0228066,65.8642932 20.9075375,65.8855552 20.536592,65.976678" id="Fill-6" fill="#232323"></path>
    </g>
</svg>