<?xml version="1.0" encoding="utf-8"?>
<!-- Generator: Adobe Illustrator 21.0.0, SVG Export Plug-In . SVG Version: 6.00 Build 0)  -->
<svg version="1.1" id="Layer_1" xmlns="http://www.w3.org/2000/svg" xmlns:xlink="http://www.w3.org/1999/xlink" x="0px" y="0px"
	 viewBox="0 0 17 17" style="enable-background:new 0 0 17 17;" xml:space="preserve">
<style type="text/css">
	.st0{clip-path:url(#SVGID_2_);fill:#424242;}
	.st1{clip-path:url(#SVGID_4_);fill:#424242;}
	.st2{clip-path:url(#SVGID_6_);fill:#424242;}
	.st3{clip-path:url(#SVGID_8_);fill:#424242;}
	.st4{clip-path:url(#SVGID_10_);fill:#424242;}
	.st5{clip-path:url(#SVGID_12_);fill:#424242;}
	.st6{clip-path:url(#SVGID_14_);fill:#424242;}
	.st7{clip-path:url(#SVGID_16_);fill:#424242;}
</style>
<g>
	<defs>
		<path id="SVGID_1_" d="M3.5,11.9c0-2.8,2.2-5.1,4.9-5.1c2.7,0,4.9,2.3,4.9,5.1"/>
	</defs>
	<clipPath id="SVGID_2_">
		<use xlink:href="#SVGID_1_"  style="overflow:visible;"/>
	</clipPath>
	<rect x="-1.5" y="1.7" class="st0" width="19.8" height="15.1"/>
</g>
<g>
	<defs>
		<path id="SVGID_3_" d="M16.8,11.4c0-0.3-0.2-0.5-0.5-0.5h-1.8c-0.3,0-0.5,0.2-0.5,0.5c0,0.3,0.2,0.5,0.5,0.5h1.8
			C16.6,11.9,16.8,11.6,16.8,11.4z"/>
	</defs>
	<clipPath id="SVGID_4_">
		<use xlink:href="#SVGID_3_"  style="overflow:visible;"/>
	</clipPath>
	<rect x="9.1" y="5.9" class="st1" width="12.8" height="11"/>
</g>
<g>
	<defs>
		<path id="SVGID_5_" d="M15.5,7.2c-0.1-0.2-0.4-0.3-0.7-0.2l-1.6,0.9C13.1,8,13,8.3,13.1,8.6v0c0.1,0.2,0.4,0.3,0.7,0.2l1.6-0.9
			C15.6,7.7,15.7,7.4,15.5,7.2z"/>
	</defs>
	<clipPath id="SVGID_6_">
		<use xlink:href="#SVGID_5_"  style="overflow:visible;"/>
	</clipPath>
	<rect x="8.1" y="1.9" class="st2" width="12.5" height="11.9"/>
</g>
<g>
	<defs>
		<path id="SVGID_7_" d="M12.5,4.2c-0.2-0.1-0.5-0.1-0.7,0.2l-1,1.6c-0.1,0.2-0.1,0.5,0.2,0.7c0.2,0.1,0.5,0.1,0.7-0.2l1-1.6
			C12.8,4.6,12.7,4.3,12.5,4.2z"/>
	</defs>
	<clipPath id="SVGID_8_">
		<use xlink:href="#SVGID_7_"  style="overflow:visible;"/>
	</clipPath>
	<rect x="5.8" y="-0.9" class="st3" width="11.9" height="12.6"/>
</g>
<g>
	<defs>
		<path id="SVGID_9_" d="M0,11.4c0-0.3,0.2-0.5,0.5-0.5h1.8c0.3,0,0.5,0.2,0.5,0.5c0,0.3-0.2,0.5-0.5,0.5H0.5
			C0.2,11.9,0,11.6,0,11.4z"/>
	</defs>
	<clipPath id="SVGID_10_">
		<use xlink:href="#SVGID_9_"  style="overflow:visible;"/>
	</clipPath>
	<rect x="-5" y="5.9" class="st4" width="12.8" height="11"/>
</g>
<g>
	<defs>
		<path id="SVGID_11_" d="M8.4,3c0.3,0,0.5,0.2,0.5,0.5v1.9c0,0.3-0.2,0.5-0.5,0.5c-0.3,0-0.5-0.2-0.5-0.5V3.5C7.9,3.2,8.1,3,8.4,3z
			"/>
	</defs>
	<clipPath id="SVGID_12_">
		<use xlink:href="#SVGID_11_"  style="overflow:visible;"/>
	</clipPath>
	<rect x="2.9" y="-2" class="st5" width="11" height="12.9"/>
</g>
<g>
	<defs>
		<path id="SVGID_13_" d="M1.3,7.2C1.4,6.9,1.7,6.8,1.9,7l1.6,0.9C3.7,8,3.8,8.3,3.7,8.6v0C3.6,8.8,3.3,8.9,3,8.8L1.5,7.9
			C1.2,7.7,1.2,7.4,1.3,7.2z"/>
	</defs>
	<clipPath id="SVGID_14_">
		<use xlink:href="#SVGID_13_"  style="overflow:visible;"/>
	</clipPath>
	<rect x="-3.8" y="1.9" class="st6" width="12.5" height="11.9"/>
</g>
<g>
	<defs>
		<path id="SVGID_15_" d="M4.4,4.2C4.6,4,4.9,4.1,5,4.3l1,1.6C6.1,6.1,6,6.4,5.8,6.6C5.6,6.7,5.3,6.7,5.2,6.4l-1-1.6
			C4.1,4.6,4.1,4.3,4.4,4.2z"/>
	</defs>
	<clipPath id="SVGID_16_">
		<use xlink:href="#SVGID_15_"  style="overflow:visible;"/>
	</clipPath>
	<rect x="-0.9" y="-0.9" class="st7" width="11.9" height="12.6"/>
</g>
</svg>
