<?xml version="1.0" encoding="UTF-8" standalone="no"?><svg width="20px" height="20px" viewBox="0 0 20 20" version="1.1" xmlns="http://www.w3.org/2000/svg" xmlns:xlink="http://www.w3.org/1999/xlink">    <g id="Shape" fill="#555759">        <path d="M1,6 C0.385214008,6 4.88498131e-15,5.61553398 4.88498131e-15,5 L4.88498131e-15,1 C4.88498131e-15,0.384466019 0.385214008,-4.4408921e-15 1,-4.4408921e-15 L5,-4.4408921e-15 C5.61478599,-4.4408921e-15 6,0.384466019 6,1 L6,6 L1,6 L1,6 Z"></path>        <path d="M8,13 C7.38521401,13 7,12.614786 7,12 L7,8 C7,7.38521401 7.38521401,7 8,7 L12,7 C12.614786,7 13,7.38521401 13,8 L13,13 L8,13 L8,13 Z"></path>        <path d="M8,6 C7.38521401,6 7,5.61553398 7,5 L7,1 C7,0.384466019 7.38521401,-4.4408921e-15 8,-4.4408921e-15 L12,-4.4408921e-15 C12.614786,-4.4408921e-15 13,0.384466019 13,1 L13,6 L8,6 L8,6 Z"></path>        <path d="M15,13 C14.385214,13 14,12.614786 14,12 L14,8 C14,7.38521401 14.385214,7 15,7 L19,7 C19.614786,7 20,7.38521401 20,8 L20,13 L15,13 L15,13 Z"></path>        <path d="M1,20 C0.385214008,20 4.88498131e-15,19.614786 4.88498131e-15,19 L4.88498131e-15,15 C4.88498131e-15,14.385214 0.385214008,14 1,14 L5,14 C5.61478599,14 6,14.385214 6,15 L6,20 L1,20 L1,20 Z"></path>        <path d="M15,6 C14.385214,6 14,5.61553398 14,5 L14,1 C14,0.384466019 14.385214,-4.4408921e-15 15,-4.4408921e-15 L19,-4.4408921e-15 C19.614786,-4.4408921e-15 20,0.384466019 20,1 L20,6 L15,6 L15,6 Z"></path>        <path d="M1,13 C0.385214008,13 4.88498131e-15,12.614786 4.88498131e-15,12 L4.88498131e-15,8 C4.88498131e-15,7.38521401 0.385214008,7 1,7 L5,7 C5.61478599,7 6,7.38521401 6,8 L6,13 L1,13 L1,13 Z"></path>        <path d="M8,20 C7.38521401,20 7,19.614786 7,19 L7,15 C7,14.385214 7.38521401,14 8,14 L12,14 C12.614786,14 13,14.385214 13,15 L13,20 L8,20 L8,20 Z"></path>    </g></svg>