<?xml version="1.0" encoding="utf-8"?>
<!-- Generator: Adobe Illustrator 21.0.0, SVG Export Plug-In . SVG Version: 6.00 Build 0)  -->
<svg version="1.1" id="Layer_1" xmlns="http://www.w3.org/2000/svg" xmlns:xlink="http://www.w3.org/1999/xlink" x="0px" y="0px"
	 viewBox="0 0 17 17" style="enable-background:new 0 0 17 17;" xml:space="preserve">
<style type="text/css">
	.st0{clip-path:url(#SVGID_2_);fill:#424242;}
	.st1{fill:none;stroke:#FFFFFF;stroke-miterlimit:10;}
</style>
<g>
	<defs>
		<path id="SVGID_1_" d="M10.7,15.7C10,15.9,9.3,16,8.5,16c-0.9,0-1.7-0.2-2.5-0.5c-2.3-0.8-4.1-2.7-4.7-5.1C1.1,9.8,1,9.2,1,8.5v0
			c0-0.1,0-0.3,0-0.4C1,8,1,7.9,1,7.7C1.4,4,4.6,1,8.5,1C12.6,1,16,4.4,16,8.5C16,11.9,13.8,14.7,10.7,15.7z"/>
	</defs>
	<clipPath id="SVGID_2_">
		<use xlink:href="#SVGID_1_"  style="overflow:visible;"/>
	</clipPath>
	<rect x="-4" y="-4" class="st0" width="25" height="25"/>
</g>
<polyline class="st1" points="8.5,4 8.5,8.7 13.2,8.7 "/>
</svg>
