<?xml version="1.0" encoding="UTF-8"?>
<svg width="20px" height="20px" viewBox="0 0 20 20" version="1.1" xmlns="http://www.w3.org/2000/svg" xmlns:xlink="http://www.w3.org/1999/xlink">
    <!-- Generator: Sketch 44.1 (41455) - http://www.bohemiancoding.com/sketch -->
    <title>picker icon</title>
    <desc>Created with Sketch.</desc>
    <defs>
        <path d="M0.994025769,0.995397568 C0.936496829,0.445654671 1.34061283,0 1.88009491,0 L16.1199095,0 C16.6668009,0 17.0638283,0.442590564 17.0059787,0.995397568 L16.1678395,9.00460243 C16.1103105,9.55434533 15.6253793,10 15.0702667,10 L2.9297377,10 C2.38109395,10 1.89001455,9.55740944 1.83216496,9.00460243 L0.994025769,0.995397568 Z" id="path-1"></path>
    </defs>
    <g id="Icons" stroke="none" stroke-width="1" fill="none" fill-rule="evenodd">
        <g id="Artboard" transform="translate(-3.000000, -4.000000)">
            <g id="picker-icon" transform="translate(3.000000, 4.000000)">
                <rect id="Rectangle" fill="#FFFFFF" x="0" y="0" width="20" height="20"></rect>
                <g id="Group-3" transform="translate(1.000000, 5.000000)">
                    <g id="Combined-Shape">
                        <use fill="#4A4A4A" fill-rule="evenodd" xlink:href="#path-1"></use>
                        <path stroke="#4A4A4A" stroke-width="2" d="M1.99996799,1 L2.82673403,8.90052377 C2.83129277,8.94408683 2.8930642,9 2.9297377,9 L15.0702667,9 C15.1088144,9 15.1685532,8.94560087 15.1732704,8.90052377 L16.0000365,1 L1.99996799,1 Z"></path>
                    </g>
                    <rect id="Rectangle-2" fill="#4A4A4A" x="0" y="0" width="18" height="1" rx="0.5"></rect>
                    <rect id="Rectangle-4" fill="#FFFFFF" x="7" y="3" width="4" height="1" rx="0.5"></rect>
                </g>
                <polygon id="Path-2" fill="#4A4A4A" points="6 5 14 5 12 2"></polygon>
            </g>
        </g>
    </g>
</svg>