<?xml version="1.0" encoding="utf-8"?>
<!-- Generator: Adobe Illustrator 19.1.0, SVG Export Plug-In . SVG Version: 6.00 Build 0)  -->
<svg version="1.1" id="Layer_1" xmlns="http://www.w3.org/2000/svg" xmlns:xlink="http://www.w3.org/1999/xlink" x="0px" y="0px"
	 viewBox="0 0 283.5 283.5" style="enable-background:new 0 0 283.5 283.5;" xml:space="preserve">
<style type="text/css">
	.st0{fill:#010202;}
</style>
<path class="st0" d="M218.8,158.1l57.9-57.9c4.9-4.9,4.9-12.9,0-17.8c-4.9-4.9-12.9-4.9-17.8,0L201,140.3l-57.9-57.9L201,24.4
	c4.9-4.9,4.9-12.9,0-17.8c-4.9-4.9-12.9-4.9-17.8,0l-57.9,57.9l-20.1-20.1L69.5,80.1c-32.3,32.3-36.4,82.3-12,119L2.7,253.9
	l26.7,26.7l54.8-54.8c36.7,24.3,86.7,20.3,119-12l35.7-35.7C238.9,178.1,218.8,158.1,218.8,158.1z"/>
</svg>
