<?xml version="1.0" encoding="utf-8"?>
<!-- Generator: Adobe Illustrator 19.1.0, SVG Export Plug-In . SVG Version: 6.00 Build 0)  -->
<svg version="1.1" id="Layer_1" xmlns="http://www.w3.org/2000/svg" xmlns:xlink="http://www.w3.org/1999/xlink" x="0px" y="0px"
	 viewBox="0 0 283.5 283.5" style="enable-background:new 0 0 283.5 283.5;" xml:space="preserve">
<style type="text/css">
	.st0{fill:#010202;}
</style>
<path class="st0" d="M141.7,157.4c23.2,0,44.1,9.5,59.5,24.8l-19.9,19.9c-10.1-10.1-24.2-16.3-39.5-16.3s-29.4,6.2-39.5,16.3
	l-19.9-19.9C97.6,166.8,118.5,157.4,141.7,157.4z M42.4,142.3c26.5-26.5,61.8-41.2,99.4-41.2s72.6,14.7,99.4,41.2l-19.9,19.9l0,0
	c-21.2-21.2-49.3-33-79.4-33s-58.2,11.8-79.4,33L42.4,142.3z M218.2,60.6c23.5,9.8,44.4,24.2,62.4,42.2l0,0l-19.9,19.9
	c-31.7-32-73.9-49.7-119-49.7s-87.3,17.6-119,49.3L2.8,102.5c18-18,38.9-32,62.4-41.8c24.2-10.1,50-15.4,76.5-15.4
	S194,50.2,218.2,60.6z M127.7,227.6c0,7.8,6.2,14.1,14.1,14.1c7.8,0,14.1-6.2,14.1-14.1c0-7.8-6.2-14.1-14.1-14.1
	S127.7,219.8,127.7,227.6z"/>
</svg>
